<?xml version="1.0" encoding="UTF-8" standalone="no"?>
<svg xmlns:dc="http://purl.org/dc/elements/1.1/" xmlns:cc="http://creativecommons.org/ns#" xmlns:rdf="http://www.w3.org/1999/02/22-rdf-syntax-ns#" xmlns:svg="http://www.w3.org/2000/svg" xmlns="http://www.w3.org/2000/svg" version="1.0" width="561.03723" height="723.01489" id="svg1923">
  <metadata id="metadata72">
    <rdf:RDF>
      <cc:Work rdf:about="">
        <dc:format>image/svg+xml</dc:format>
        <dc:type rdf:resource="http://purl.org/dc/dcmitype/StillImage"/>
        <dc:title/>
      </cc:Work>
    </rdf:RDF>
  </metadata>
  <defs id="defs1926"/>
  <path style="fill:#ffffff;fill-opacity:1;stroke:#000000;stroke-width:3;stroke-linecap:butt;stroke-linejoin:miter;stroke-miterlimit:4;stroke-dasharray:none;stroke-opacity:1" d="m 531.21289,1.8164062 c -10.40534,0.073687 -19.99234,5.2571944 -19.67969,17.7773438 2.78738,-5.682389 9.89495,-8.600927 17.10547,-9.9414062 19.42381,0.4761112 19.71767,20.2007472 8.89649,31.9824222 -7.69726,6.79449 -15.55622,7.458151 -26.84571,4.806641 -11.7812,-3.077594 -20.83553,-0.673312 -27.85937,5.49414 -4.63042,-17.39299 -24.4877,-28.166403 -40.05664,-27.203125 -23.43966,2.466701 -32.942,35.173838 -3.08203,33.142578 -14.27959,-5.13823 -9.36425,-15.818663 3.42187,-16.570312 14.33443,2.283039 19.69872,20.358793 11.80274,31.652343 -14.71043,20.05205 -24.8655,44.953399 -27.77344,69.148439 -4.60491,43.13316 -2.91681,57.13075 13.53125,96.47461 9.87366,21.34026 39.23784,51.3533 44.17578,71.6875 -3.3491,-7.59458 -10.5171,-11.39587 -18.47266,-12.09766 -9.73802,-1.32933 -18.67583,2.88941 -28.39453,1.32617 -17.75446,-4.66496 -24.14666,-16.43658 -10.77734,-30.98828 -15.66661,2.87805 -21.69534,16.94691 -16.5918,31.15235 6.02032,8.68792 14.31747,11.76757 24.46289,11.76757 -7.0789,4.86536 -15.17396,7.55828 -23.4375,9.61133 5.81406,3.81153 13.00013,3.9765 21.55274,0.49805 -24.18849,17.84572 -13.91325,47.90138 15.05273,46.89844 9.90755,-0.34304 17.48142,-8.47123 17.44727,-15.57813 -3.93417,5.46874 -9.74906,7.78816 -16.93164,7.12696 -14.49708,-4.75428 -15.75691,-20.28341 -5.64454,-29.99805 28.31319,-20.78297 64.23715,9.70011 55.9336,46.73437 -10.77209,25.40063 -36.08258,35.18613 -61.91992,35.96094 -36.35833,-2.59119 -65.92803,-30.74999 -86.38282,-58.66602 -9.80757,-17.57902 -10.26998,-37.92893 -15.56445,-57.0039 4.1673,2.27401 9.85935,5.61303 15.73633,5.96289 -8.84395,-13.38267 -10.84594,-36.60981 -6.3457,-57.89453 8.0157,0.63008 13.9584,0.0552 32.08007,-5.56446 -17.13408,-2.08661 -22.83092,-4.37237 -26.79687,-11.53515 4.58432,-10.86885 16.64801,-6.97919 19.64062,-1.24024 4.4473,-8.28597 3.59062,-16.73805 -2.73828,-25.35546 16.4406,9.6979 40.4233,12.88146 52.3418,-4.97071 -23.4274,9.33917 -46.00967,-3.39965 -59.35547,-22.53906 15.7924,-5.93428 31.29101,-9.92822 22.31641,6.26367 10.6052,-5.46872 12.61718,-9.04043 12.61718,-14.17773 -2.2104,-15.2509 -21.95281,-11.08243 -28.94921,-30.03516 14.0879,12.63813 19.40711,12.05911 35.44921,5.00586 -14.3999,2.89983 -28.27454,-4.02066 -32.43164,-18.63476 4.6167,-5.96588 11.71481,-2.81764 19.41211,9.61132 4.9606,-10.60605 2.03114,-16.0344 -8.57226,-22.16601 -7.0793,-4.01661 -13.84977,-8.6238 -18.47656,-15.412112 6.56979,9.390962 18.86671,14.406382 27.88281,5.800782 3.4212,-4.14297 4.27773,-8.287299 2.39453,-12.761719 -13.5808,13.508509 -25.47811,-3.54312 -28.56641,-18.72461 -1.0263,-5.30304 -4.61671,-10.109564 -10.60351,-14.583984 9.235,-1.16004 14.19846,-4.143665 14.88086,-9.115235 -4.4473,2.154351 -8.89342,2.982592 -13.51172,1.988282 -3.7633,-6.96021 -9.75137,-12.428405 -18.13477,-16.074219 -2.27613,-0.735348 -4.58886,-0.998283 -7.00781,-1.072266 41.92561,-1.261582 -11.73818,-17.051616 -27.9668,-10.707031 -17.1345,6.698742 -31.3086,6.260973 -51.1914,8.939453 -19.8828,2.678481 -39.89736,7.319542 -53.06836,13.451172 -3.421,1.49147 -6.3279,2.981492 -8.72266,4.638672 -0.0597,4.031204 2.0909,7.603777 5.81445,8.121094 -3.3291,15.98214 11.01497,26.447584 23.94727,32.646484 9.7516,-0.0936 19.46748,0.489143 30.26758,2.580078 10.8001,2.090935 22.59973,7.566781 30.11523,17.306639 3.9573,6.05128 3.98813,11.07601 -0.51367,16.40625 -13.6851,6.51999 -27.82745,2.32739 -41.56445,-1.49219 -7.4298,-2.15496 -15.1471,-1.76593 -22.75,-1.16015 -3.079,3.3144 -2.90908,6.62896 0.16992,9.94336 -3.5921,6.46305 -10.60409,8.28538 -20.86719,5.13672 3.7631,6.29732 8.38147,9.28066 14.19727,8.94922 5.1315,-0.66287 11.75912,-3.44792 16.89062,-7.09376 -4.8766,6.41669 -13.37829,12.74913 -12.52929,21.48438 0.943,-2.1771 2.26678,-4.00327 3.85546,-5.55078 4.63834,1.51455 6.27673,11.02758 2.73047,12.20703 -2.3947,-0.8286 -4.79084,-1.49113 -7.18554,-1.98828 -1.60165,-0.36511 -3.19594,-0.68327 -4.78711,-0.97266 -3.00936,-3.57332 -6.15903,-7.09274 -9.18164,-10.4082 -15.54888,-17.50619 -28.12636,-37.49525 -46.16602,-54.261719 -8.02361,-7.74227 -21.99862,-11.023505 -31.95508,-16.564453 -0.80777,0.15048 -1.69763,0.182586 -2.63281,0.130859 2.10981,-5.823828 3.93149,-12.000379 5.61133,-17.556641 1.15677,-4.50924 3.81062,-8.747583 7.95898,-12.714844 0.12321,-3.02877 -1.21844,-6.153483 -3.45703,-8.871093 l -20.89062,1.18164 c -4.619374,-1.80357 -6.693523,-1.307425 -9.136723,2.115235 -1.22544,5.04637 -0.67424,11.059637 1.8125,18.029297 -0.653934,2.219546 -1.431606,4.132682 -2.330078,5.753906 C 89.152723,60.718162 84.16059,48.107551 72.181641,48.292969 c -4.06003,1.36591 -5.741613,3.021515 -5.539063,5.417969 l -4.460933,19.291015 c -0.03535,6.624533 7.811831,13.35602 6.802418,13.250858 -1.009414,-0.105162 -15.098016,2.782503 -16.964528,7.325314 l 6.976563,19.166015 c -2.984509,7.71219 4.481572,11.51834 10.714844,10.30274 3.110399,-4.13305 4.860273,-8.1351 5.589843,-12.03907 2.22156,4.12008 2.682164,7.90967 1.402344,11.53321 5.89248,1.76664 10.593755,0.81425 14.234375,-3.20313 2.93079,-6.17541 -4.258787,9.78058 -4.529297,12.27149 6.70774,-1.99476 12.882445,-2.69343 18.357413,2.40039 l -15.564444,2.16406 c 2.367577,4.94319 4.175823,9.03666 9.166016,10.99219 -7.64141,7.90274 -9.812767,16.2391 -7.160157,25.31836 8.26937,-12.52342 27.732325,-5.29278 39.164055,-1.9336 -7.60185,5.39864 -17.1635,5.9854 -28.64843,2.08984 6.85426,9.67511 17.51851,12.4821 32.0332,8.75196 -7.013,3.47134 -14.54894,9.40775 -20.06445,16.09961 10.75807,-3.68524 22.9357,-3.76328 34.48047,-3.65235 -10.75051,2.17776 -29.88712,8.12907 -26.98633,18.59961 2.93848,-2.10051 8.87849,-3.96287 16.13672,-3.90429 1.67385,2.96815 3.64421,5.67899 6.25,7.93554 -2.21315,1.32252 -3.75542,3.23926 -4.33789,5.73242 5.34809,0.71521 9.67924,1.60572 13.49609,2.66407 -6.26399,8.61952 -12.72458,16.82467 -29.36914,4.24609 -3.92422,6.80016 2.94127,17.98347 12.10937,19.19531 2.08302,0.41275 4.60086,0.51699 7.25391,0.39649 -0.44327,0.03 -0.87585,0.0645 -1.33594,0.0879 13.09071,4.81887 26.09688,3.52953 30.61914,2.73633 -4.57244,1.1347 -10.07589,2.30941 -14.43554,4.07812 -5.66507,2.29832 -13.09901,8.55639 -17.6211,15.50781 -20.80519,10.9774 -37.16541,28.67892 -46.464838,42.79883 -2.05263,1.82293 -2.394625,3.81097 -1.197266,5.30078 -6.795909,1.10143 -13.453545,2.63389 -17.443359,7.05664 -2.931961,-2.30614 -5.612654,-5.14127 -8.083984,-8.51953 -0.62583,-4.6292 -2.792104,-9.23051 -6.496094,-13.79883 -2.76839,-1.27114 -4.443179,-0.45109 -4.443179,-0.45109 l -19.111508,16.81828 c -2.34583,2.0342 -2.80126,4.36439 -1.38086,6.49024 5.543964,0.50628 10.430636,1.49182 14.150391,5.0332 2.503807,3.80638 4.215103,7.1242 5.109375,10.08984 -6.625199,4.2428 -25.446878,-14.87774 -37.564453,5.28907 0.342097,1.32575 1.078179,1.85221 3.301845,2.34938 l 8.395088,17.61385 c 2.22216,4.02505 6.10252,6.65809 11.566738,8.04458 4.660537,-3.41714 7.723964,-9.30911 14.667969,-3.92578 -2.536057,4.4717 -7.83465,9.32698 -6.115234,14.86133 l 3.421875,6.6289 19.15625,4.64063 c 3.59208,2.65316 9.237392,3.14771 16.763672,1.65625 -5.10427,-4.56255 -7.471476,-10.71806 -7.697266,-17.40039 l 2.394531,5.80078 c 5.13155,-3.4801 15.401023,0.22563 21.216797,1.88281 7.18418,-7.12594 6.66509,-18.95129 7.6914,-25.74414 7.45603,10.44262 17.45352,10.21237 25.31641,7.12305 -10.09207,0.99433 -12.14644,-2.48463 -5.64649,-10.10938 5.03294,-1.05449 9.05429,-4.49246 10.09375,-9.77734 0.24858,-1.7471 3.64917,6.0143 7.52539,6.29883 1.1974,-9.61172 4.10541,-16.57353 8.55274,-20.55079 -0.34209,11.43465 2.73607,17.56848 9.57812,18.72852 1.55043,-11.95242 5.13014,-22.91228 14.02735,-31.32031 0.3421,5.30302 -1.197,10.7712 -4.78906,16.07422 13.20145,-4.98815 22.14096,-12.15847 22.46875,-26.14063 7.01313,12.76038 5.24114,21.83069 -2.28516,32.93555 6.1144,-4.95827 12.86288,-10.12791 20.86914,-15.7168 1.53947,9.61338 -0.002,16.21367 -4.44922,21.01953 10.20118,0.62206 14.87044,-7.44378 17.96094,-15.9082 -1.88159,8.78312 0.17149,14.91502 6.1582,18.72656 12.48679,5.63281 25.48607,9.44663 38.82813,11.4336 13.00274,3.01228 28.56836,23.62695 28.56836,23.62695 0.90474,5.01266 -2.25272,13.3289 -3.25,21.08594 -21.38146,1.48981 -39.86549,8.2596 -53.72071,20.1914 -16.21344,-2.18734 -34.19531,-2.70818 -47.03906,6.46289 -8.8947,10.11055 -16.59347,16.40678 -23.43555,18.89258 -6.32088,2.06861 -13.39604,0.6547 -17.44726,-2.98242 -4.78946,-4.31036 -3.24956,-10.27506 4.96094,-17.73242 -11.29116,-0.33974 -17.96268,3.96881 -20.35743,12.75195 -2.05446,11.1874 1.17909,19.95065 12.31641,20.54883 5.30261,0 12.14467,-1.32566 20.69727,-4.30859 -16.53626,13.05509 -27.19309,13.02672 -44.98633,2.32031 6.1992,10.68807 16.67214,19.62617 25.6582,15.57812 -3.24999,10.10887 -13.00121,16.57143 -29.08008,19.38867 16.76307,6.13161 29.93486,3.14847 38.31641,-9.94336 -3.60312,16.48932 -15.50248,30.0825 -27.36914,37.94922 17.83675,1.9907 29.50733,-4.64017 34.89453,-20.04882 -0.3421,10.27458 -3.59132,18.56037 -9.57813,25.02343 5.96486,9.6914 17.06695,15.45057 26.85547,18.39453 -7.69735,0.49717 -13.42958,0.12696 -16.59179,-2.15429 -7.7207,-5.5698 -19.71661,-6.04649 -27.53907,-2.81836 -9.09076,3.75153 -19.67222,6.29641 -32.33007,7.28906 -5.81247,-0.37108 -10.8994,-3.18459 -14.53907,-6.95898 -0.51316,-7.12758 -2.564978,-15.08123 -6.328118,-23.53125 -3.34551,-1.55893 -11.402002,-3.63575 -12.658203,0.16601 l -15.736328,17.23633 c -5.47365,2.65151 -7.014696,5.6329 -4.791016,8.94727 3.290754,4.33832 7.940838,7.85173 12.144531,9.61328 6.84208,2.31841 15.908664,2.982 27.369134,1.65625 -6.49996,4.8042 -16.24975,5.96537 -29.59179,3.14648 -3.9342,-1.32576 -8.723595,-3.47829 -14.197265,-6.62695 l -3.25,2.98242 1.710937,27.67578 c -1.3684,3.31438 -0.342602,5.79953 2.736328,7.29102 l 8.552735,-0.16797 c 4.9605,-2.81558 7.35432,-6.62941 7.52539,-11.4336 0.17105,4.80419 1.36842,7.45793 3.25,8.11914 4.27629,0.82862 8.210655,0.33192 11.802735,-0.82812 -1.0263,0.33145 -2.051805,0.99504 -3.078125,1.65625 l -8.552735,6.96094 c 5.885732,7.13367 12.676728,13.46881 19.158203,20.05469 -0.51314,2.31838 0.854341,3.64405 4.275387,4.30859 3.76314,1.49146 7.0143,1.82132 9.58008,0.16406 5.81576,-3.64417 9.0658,-8.78276 9.75,-15.24414 1.19737,1.82288 3.42023,4.97255 6.32812,9.44531 4.78944,-8.1186 9.23739,-13.42408 13.51367,-15.74414 -4.27628,5.80017 -5.81733,11.60023 -4.79101,17.40039 8.03943,-8.11859 17.61961,-12.59523 29.08008,-13.58789 -3.59207,9.94316 -12.48741,16.57264 -26.51367,20.2168 5.89828,8.4489 14.81834,9.88364 21.55273,7.79102 9.72208,-3.23121 15.28488,-9.39729 18.07159,-18.04773 -2.27078,21.38763 18.83183,28.75325 30.33661,28.6571 -6.59219,-4.48388 -12.43431,-10.47932 -12.37499,-16.75797 0.0593,-6.27866 2.9671,-11.58279 9.12499,-17.54867 6.49998,8.45167 10.09199,17.56601 10.94727,27.17773 7.52627,-10.93914 10.26212,-23.20008 8.72266,-36.78906 0.71872,2.77657 1.56091,5.75796 2.5664,8.11914 5.98681,13.75636 18.13215,20.71454 36.26367,20.54883 -10.60522,-6.7945 -18.13273,-15.90882 -22.58007,-27.17773 12.56889,11.65361 30.26364,13.27607 43.44726,0.33203 -42.23392,3.16739 -51.41737,-26.0054 -21.39844,-45.6211 -0.2618,-5.18863 0.18571,-10.59439 1.16016,-16.15429 5.46739,-3.33033 10.06284,-8.0319 13.15234,-14.10743 -3.20529,8.12491 -5.46261,16.50288 -6.76172,25.23243 3.68344,-3.43067 8.44468,-8.10289 13,-10.10743 3.506,15.19939 2.93274,31.46359 -7.69726,43.75 16.38801,-6.59144 33.1031,-29.35894 21.51953,-46.63281 4.90493,5.91826 11.77805,8.8953 19.10156,9.45703 8.27835,18.67425 24.86626,27.65862 47.79102,28.28904 -16.57273,20.81332 -24.5517,45.92077 -28.375,71.86132 -7.30025,7.20063 -17.37159,7.4958 -24.97461,0.99219 -3.93417,-0.49716 -8.37959,-0.49716 -13.3418,0 -2.56577,0.99431 -3.42167,2.65063 -2.5664,4.9707 2.90787,0.82859 4.96083,2.98444 6.1582,6.29883 0.85525,3.48178 0.51377,6.62869 -0.6836,9.77735 -0.17279,0.33144 -0.17248,0.49667 -0.34179,0.82812 -1.71052,4.8042 -1.53978,9.27994 0.34179,13.08985 9.74991,-1.82291 15.05353,-6.79409 16.07813,-15.08008 0.8392,4.71527 2.99935,7.19245 6.14844,7.7539 -0.007,0.0119 -0.0147,0.0232 -0.0215,0.0352 l 2.59766,6.79297 c 9.09228,-2.95674 17.15915,3.35131 20.01367,11.76758 5.50348,0.0854 11.11283,-2.44935 9.71875,-8.65821 2.54523,-1.58466 5.1224,-3.45632 7.35742,-5.52343 5.26642,7.69811 14.46798,4.96906 19.86719,-1.23243 -1.13286,-10.19134 11.66291,-16.91159 18.81641,-9.60937 h 0.17187 c 5.96648,-4.51467 6.47784,-12.87254 2.61328,-18.12891 5.50368,2.22041 11.53637,2.87349 22.8711,0.39649 -16.68445,-3.43121 -16.89615,-15.39451 -18.30274,-29.66211 6.42735,4.80215 9.67153,12.38664 12.31641,19.7207 5.16696,-7.93089 6.5315,-18.33074 4.46289,-25.66016 4.21323,8.29958 24.58209,3.1328 31.11328,-4.83203 -22.49877,2.67142 -34.57311,-12.11762 -37.14648,-19.58789 9.89732,-0.90885 16.98034,0.25187 25.45507,13.24805 3.76326,-8.11858 -0.79423,-16.19649 -16.87304,-30.11523 6.50163,1.16002 11.46021,3.31283 14.53906,6.79296 7.7498,-9.54438 -6.27792,-20.17685 -14.02539,-24.02929 17.96379,8.81743 34.80193,13.70021 49.75977,-0.25977 -20.71488,1.20493 -30.70671,0.88194 -40.34961,-17.30664 11.29246,-7.68597 23.97913,-0.39775 30.27343,10.10938 5.47885,-24.769 -16.36549,-30.24224 -40.70898,-23.53125 9.30882,-4.29398 34.53767,-15.11536 24.29101,-28.83399 -12.21456,13.32962 -31.02212,18.19163 -47.38281,10.10742 10.26307,-2.48579 15.73793,-8.45154 16.42383,-17.40039 -15.02915,13.48586 -35.43563,9.14807 -40.75781,-11.37304 6.03152,6.93612 25.73099,17.91315 31.51953,4.58203 -20.03078,1.60302 -29.49964,-20.50692 -35.92188,-35.79688 10.44092,6.46183 10.17017,5.45346 22.58008,12.26172 -21.14669,-31.58147 -18.62807,-42.66382 -17.86719,-55.95898 40.10453,32.01589 89.60784,31.81842 121.06446,0.59765 20.01133,-16.73767 29.03189,-44.23786 29.20117,-77.71484 1.36506,-11.98003 10.5223,-10.94398 18.98828,-6.46289 0.54309,-8.02574 -2.53208,-12.65917 -6.79848,-14.27346 l -2.2523,-1.79295 c 17.24503,-12.4537 24.06391,-32.58783 0.94727,-47.01172 11.96748,35.00006 -21.75992,11.03012 -31.23829,52.96875 -3.42097,-12.7604 -8.3809,-22.54054 -14.88086,-29.00195 -8.03941,-7.62475 -15.90901,-19.38887 -23.77734,-34.80078 -4.44736,-10.44032 -6.49887,-19.8868 -6.32617,-28.66992 -1.59343,-25.47989 38.58046,-21.97397 26.50976,-10.43946 8.85633,-0.44819 10.52202,-6.46113 5.47266,-12.26367 -11.5205,-13.99092 -38.11424,-7.52895 -41.9082,13.58985 -5.30266,-19.5549 -7.18118,-40.60113 -5.47071,-63.30469 1.02625,-12.09752 6.15723,-24.36147 15.73438,-36.45899 12.14644,-11.26893 22.06591,-16.903702 30.44922,-16.572262 8.21046,0.33145 15.90708,2.817156 23.43164,7.623052 7.35692,4.80585 10.43735,13.42397 9.58203,25.52148 -6.60194,19.73073 -36.62975,30.39118 -37.63477,3.81055 -16.36689,22.21666 4.2533,34.90736 26.17188,24.02929 -22.97482,13.10809 -6.15929,23.45687 13,25.18946 -25.12026,-20.99207 25.83319,-40.58525 21.55469,-73.41211 -7.28487,-21.771918 -15.26115,-33.634652 -58.8418,-30.824222 36.29598,-7.97402 59.20215,-2.214538 66.19727,-40.767578 -0.10061,-8.296542 0.64009,-18.979467 -4.82618,-25.628906 C 550.21287,5.6643084 540.39407,1.751388 531.21289,1.8164062 Z" id="path851"/>
  <path d="m 262.38103,115.43929 c 6.5,0.49715 11.4605,2.81724 14.7105,6.96021 4.1052,-4.14297 3.9341,-9.44601 -0.1712,-15.90906 -1.3684,-1.82291 -2.9079,-3.64582 -4.7894,-5.30302 -7.1842,-1.657186 -14.40019,-3.152826 -21.3815,-2.485786 -23.58641,2.253596 -33.64861,1.226315 -56.105,0.49726 -5.49334,-0.178343 -10.77642,-4.64015 -15.90798,-12.09752 -2.39472,2.81722 -3.24997,6.62877 -2.56577,10.93748 2.39472,7.291646 7.01643,11.919446 13.85535,13.754726 17.68565,4.7461 32.67803,1.52624 72.355,3.64571 z" id="path3717" style="fill:#ffffff;fill-opacity:1;stroke:#000000;stroke-width:3;stroke-miterlimit:4;stroke-dasharray:none;stroke-opacity:1"/>
  <path id="path3737" style="fill:#ffffff;fill-opacity:1;stroke:#000000;stroke-width:3;stroke-miterlimit:4;stroke-dasharray:none;stroke-opacity:1" d="m 20.32724,349.57205 c -22.694359,4.26354 -25.510288,27.76674 -3.208935,40.52218 -5.575192,-11.74978 2.202545,-20.22258 15.282685,-23.60208 10.59998,-9.82939 -0.38978,-15.35013 -12.07375,-16.9201 z m 32.67779,40.31501 c 8.74148,-4.85848 25.44081,0.0735 20.3298,9.04209 -11.34202,21.09207 -45.14146,16.40277 -47.49917,-3.65283 17.76099,7.29494 24.90395,0.37223 27.16937,-5.38926 z m 28.32601,215.95921 h -0.17105 c -5.81577,6.79449 -8.72365,14.41757 -8.8947,23.03332 1.19736,12.42898 8.72365,16.9034 22.7499,13.25756 -5.98683,-3.64416 -8.920682,-9.01305 -7.52628,-15.74335 1.013549,-4.89205 6.140732,-5.41455 9.74995,-4.64004 5.60626,-7.538 -9.573092,-20.14294 -15.90782,-15.90741 z M 53.96273,562.59349 c -9.57889,2.81722 -17.063342,8.25278 -19.1578,16.90338 -3.158181,13.04403 1.71942,27.03736 15.90781,27.67515 -5.084952,-7.22593 -4.986076,-16.10688 5.13158,-17.56461 12.483892,-6.48044 8.598457,-19.63478 -1.88159,-27.01392 z m 28.05252,-36.45992 c -4.038514,-4.66556 -12.881888,-5.83787 -17.61835,-5.46709 -11.228388,0.87897 -27.236197,4.73401 -25.82884,20.55086 6.67103,-4.80586 14.19731,-7.12594 22.4078,-7.12594 5.3026,2.48579 6.84207,5.6328 4.44734,9.11458 16.757505,0.77637 26.63,-5.47591 16.59205,-17.07241 z m 300.15024,157.83044 c 11.87668,4.82504 6.44591,15.16551 -4.96054,16.90505 26.12192,13.87622 29.54895,-2.93822 23.94726,-26.18369 -8.82469,-9.53061 -17.27953,-2.61028 -18.98672,9.27864 z m -57.458,4.39915 c -9.18634,21.18573 9.43199,42.77009 29.34316,28.1012 0,0 -20.86484,-8.85749 -10.43248,-19.22511 -2.20426,-10.14274 -10.7626,-14.861 -18.91068,-8.87609 z m -27.99023,-30.96501 c -22.17131,7.34527 -35.13608,34.23918 -6.71594,50.08264 -7.13096,-11.78205 -1.34588,-23.1411 10.60522,-28.17231 3.06756,-7.02199 2.59169,-17.86532 -3.88928,-21.91033 z M 55.82245,303.50204 c -8.63688,-17.58971 -53.399317,3.5388 -32.67091,22.8693 -0.55413,-7.8122 17.29302,-14.72599 16.93414,-4.47444 11.40508,-2.10929 19.81098,-7.48532 15.73677,-18.39486 z m 3.5976,-209.243626 c -19.24542,-0.09 -33.87634,29.704076 -12.65783,35.629666 -2.14973,-8.06995 5.40502,-23.95983 16.07887,-17.0691 11.41493,-5.75331 10.59345,-18.653076 -3.42104,-18.560566 z m 6.64614,-41.50976 C 45.7,51.648184 38.11128,75.512304 49.67711,86.359944 c 0.34651,-10.1801 6.44039,-17.15832 18.95016,-15.86337 9.00721,-0.37558 6.31586,-14.6844 -2.56108,-17.74792 z m 58.64639,-8.95293 C 126.6601,25.099554 96.79793,4.76781 87.25699,24.286603 c 12.82208,1.992174 17.45916,9.251181 16.2318,19.551481 3.89446,8.601063 21.011,9.6308 21.22379,-0.04236 z m 105.51065,70.980696 -6.4999,-9.44602 -4.1053,10.10889 -1.3684,4.3087 c 6.3289,-0.16563 11.9736,0.33145 16.592,1.6572 z m -1.3684,-15.523826 1.5395,-11.76607 c -4.90009,-0.226303 -9.80751,-0.291351 -13.8554,-0.33126 1.79921,4.495665 4.04331,8.978216 5.8158,12.76022 l 2.3947,3.480096 c 1.42996,-1.44319 2.88153,-2.90808 4.1054,-4.142986 z"/>
  <path style="fill:#ffffff;fill-opacity:1;stroke:#000000;stroke-width:3;stroke-miterlimit:4;stroke-dasharray:none;stroke-opacity:1" d="m 273.92072,391.45384 c 15.05259,0.33142 24.12003,6.29735 27.19725,18.06342 4.91934,-19.20038 7.50909,-18.25878 -10.77438,-31.98551 -8.57368,0.70782 -13.56433,6.08211 -16.42287,13.92209 z" id="path149"/>
  <path d="m 266.88647,59.104387 c 0.5132,-0.16563 1.0264,-0.16563 1.7106,-0.16563 l 12.695,-1.65719 c -4.4474,-4.64015 -8.9319,-8.78312 -15.0898,-12.42896 -14.0115,-9.04669 -21.2729,16.51039 0.6842,14.25187 z" id="path3713" style="fill:none;fill-opacity:1;stroke:#000000;stroke-width:3;stroke-miterlimit:4;stroke-dasharray:none;stroke-opacity:1"/>
  <path id="path927" style="fill:none;fill-rule:evenodd;stroke:#000000;stroke-width:3;stroke-linecap:butt;stroke-linejoin:miter;stroke-miterlimit:4;stroke-dasharray:none;stroke-opacity:1" d="m 75.481821,84.101429 c -1.295934,0.799237 -2.966447,1.885354 -5.660395,2.489389 4.251265,3.469759 10.329238,7.791562 23.285864,3.220108 m 154.7647,-46.162063 c 2.12215,-3.184346 4.79332,-5.270671 8.17942,-5.927116 m -62.74282,16.508722 c 3.39575,0.239762 6.66455,-1.746132 7.26502,-3.913601 M 525.06444,315.31643 c 4.05474,-3.47781 10.63679,-7.12376 17.47496,-5.07229 M 425.1621,620.0215 c -1.81443,-4.64929 -4.15823,-9.33929 -14.04297,-14.60937 m -2.73633,20.54883 c -3.05818,-2.62668 -5.65882,-4.3383 -8.04856,-5.62811 M 364.23633,579.291 c 2.55319,0.0166 4.22912,0.15919 7.80874,-1.31263 M 120.67383,611.1504 c -1.71169,-5.84872 -0.73973,-10.49554 5.89751,-15.37742 M 88.563046,593.576 c 3.944269,-1.40863 6.620811,-2.43757 10.514646,-3.33527 5.166448,-1.19109 4.904088,-5.48144 4.861688,-8.7175 m 54.02351,-98.64041 c 0.9826,-4.45985 17.30008,-8.7747 21.21804,-9.38861 M 98.367192,147.16602 c 7.636068,2.25856 15.272128,1.74694 22.908198,0.92382 M 217.5,331.17579 c 10.19969,-7.68247 24.01286,-12.60951 36.26172,-13.78125 M 94.917969,69.466797 c 3.996313,6.665771 9.171711,11.903647 20.431641,12.0625 M 301.31567,411.16072 c 0,0 -2.41013,20.11066 -3.42505,33.34124 -17.16667,13.46139 -27.84887,30.9536 -31.4746,52.36719 -2.45716,10.28769 2.91392,24.60384 -4.96094,32.97656 -22.78404,16.1165 -48.04247,-2.31859 -27.53906,-25.02539 -24.92867,6.54147 -28.20243,29.01653 -6.8418,42.42578 12.27073,3.81192 26.57198,2.19942 37.05664,-3.83593 M 54.589844,341.93359 c 6.700271,-4.04787 10.025829,-3.68775 20.255859,-15.66211 m -21.181923,1.67864 -6.97524,1.62597 m 167.8388,-176.18937 c 6.13919,-5.48804 16.40381,-7.74262 24.11119,-8.83967 -0.5132,4.47444 -4.4474,9.11458 -11.4605,13.92044 13.6841,-1.8229 22.921,-6.46305 27.8814,-13.589 1.1974,7.12595 5.1316,10.77176 11.9737,11.26894 -2.2237,-5.30303 -1.5395,-9.77745 1.8815,-13.09184 4.9606,9.11456 13.3421,14.74902 25.4851,16.40621 -6.1579,-4.80586 -9.0658,-11.1032 -8.5526,-19.05772 5.3043,4.97157 9.7499,7.12592 13.5131,6.7945 -0.6842,-6.7945 1.5394,-12.92613 6.4999,-18.39486 1.7105,6.29733 8.8947,9.94316 21.5543,10.60603 -14.37457,-13.90439 -16.02701,-26.3096 -9.0675,-43.915636 5.1316,0.66287 8.5525,4.640146 10.6053,12.428956 1.3684,-13.588996 -4.1036,-22.537846 -16.5921,-27.012266 16.09556,3.959561 26.91289,-1.865005 28.2236,-16.73766 1.65405,-18.768526 -19.9768,-22.443492 -28.7368,-12.42868 M 204.66696,162.50884 c -6.86442,-1.20196 -13.64368,-1.60321 -20.42297,-0.55234 -9.83917,-0.16739 -13.42517,-7.2143 -15.56571,-15.75244 -7.18418,3.14868 -10.60522,7.78883 -9.57892,14.08615 4.61841,9.94316 13.34204,14.91476 26.51305,15.41191 -6.83125,3.60735 -25.83135,9.68048 -32.84196,22.37212 -4.96051,7.95454 -11.14323,4.95611 -21.38149,-2.48578 1.92269,4.39523 3.74882,9.01505 5.93331,12.9467 m 6.25,7.93554 c 3.39937,2.24895 4.60029,7.15869 9.1582,8.39649 3.45013,-3.57788 5.29375,-15.51813 11.15845,-19.16985 m 18.22946,19.44451 c -15.97024,10.26339 -14.77222,22.33403 -40.7304,23.65059 m 50.89565,-15.64571 c -2.95168,14.44661 -9.39257,16.60676 -20.275,18.38236 m -32.05746,19.58615 c -3.92524,6.28228 -5.82419,13.46548 -1.67235,17.56633 29.97899,-27.58826 32.22388,-6.48156 64.61011,-24.98592 -4.0765,8.90636 -9.2858,16.09252 -5.9182,25.44796 5.4737,8.1186 16.8654,14.65607 25.9311,16.64469 -20.789,-19.00517 -11.25865,-29.95096 8.5526,-37.28679 -10.24081,12.02271 -8.71735,27.66121 3.592,32.31528 -10.7766,-14.47409 1.8965,-26.28918 15.8854,-30.32792 1.5998,8.42598 -1.7751,14.79851 -7.5038,20.71786 14.6639,-3.65873 25.7711,-15.33679 34.3591,-27.47447 m -3.1195,-20.30137 c 0.3255,2.38252 -5.8896,10.17408 -20.1355,16.84302 18.2541,4.93817 26.7465,2.79219 33.0255,0.68427 m 8.7236,-28.41779 c -18.8983,25.91858 -6.4855,53.27423 35.1083,46.59992 -7.1017,-4.51668 -20.59142,-11.61904 -22.2135,-21.88645 -1.43922,-9.11001 7.4617,-11.98026 12.7632,-24.54941 m -12.7632,24.54941 c 23.65447,-9.72744 35.3068,-20.92179 27.9869,-41.45274 m -5.3837,28.09184 c 5.31354,0.40627 9.13527,0.89479 12.55627,1.17247 M 321.66703,57.451371 c 2.5658,1.6572 3.864,4.402153 5.9166,7.053663 -0.6843,3.81155 -2.0526,6.29734 -4.6184,8.12025 m 5.14187,-20.389252 c -1.72996,1.663104 -11.60736,9.241668 -15.06117,8.126022 m -23.4341,41.264126 c 7.55782,13.58151 4.53551,22.40172 -7.0114,29.16662 14.33295,-10.12937 13.92966,-16.14451 7.0114,-29.16662 z m -8.8947,-12.263216 c -8.97438,-8.585557 -20.20211,-12.543429 -31.4735,-10.91089 12.11322,-1.814855 23.58556,3.120245 31.4735,10.91089 z M 482.83008,51.935547 c -5.1546,4.214681 -10.69196,13.197147 -12.34961,16.712888 M 289.3418,359.6543 c 12.74504,5.47741 13.81398,18.96046 15.22461,30.41993 m 11.8789,160.92773 c 3.8178,0.71617 24.01175,-4.63142 36.45498,-13.84321 m -18.13976,9.44053 c -7.08529,1.41006 -20.14812,-4.63665 -22.55155,-6.97037 m 42.77929,150.09181 c -1.74305,-5.03205 -3.88203,-5.95546 -6.29882,-7.25197 m 13.65624,1.72854 c 10.15229,-9.61154 8.93666,-18.01985 0.19923,-21.28323 m 42.46587,-7.23254 c -2.76934,-0.7854 -19.43348,-9.09221 -21.43071,-10.49988 M 66.460938,352.52734 c 1.335488,6.50709 -9.19474,13.8052 -11.503903,18.77736"/>
</svg>