<?xml version="1.0" encoding="UTF-8" standalone="no"?>
<!-- Created with Inkscape (http://www.inkscape.org/) -->
<svg xmlns:dc="http://purl.org/dc/elements/1.1/" xmlns:cc="http://web.resource.org/cc/" xmlns:rdf="http://www.w3.org/1999/02/22-rdf-syntax-ns#" xmlns:svg="http://www.w3.org/2000/svg" xmlns="http://www.w3.org/2000/svg" xmlns:xlink="http://www.w3.org/1999/xlink" xmlns:sodipodi="http://sodipodi.sourceforge.net/DTD/sodipodi-0.dtd" xmlns:inkscape="http://www.inkscape.org/namespaces/inkscape" id="svg2" sodipodi:version="0.32" inkscape:version="0.45" width="670" height="180" version="1.0" sodipodi:docbase="/home/rama/images/new/Morges" sodipodi:docname="Claymore_(PSF).svg" inkscape:output_extension="org.inkscape.output.svg.inkscape" sodipodi:modified="true">
  <metadata id="metadata7">
    <rdf:RDF>
      <cc:Work rdf:about="">
        <dc:format>image/svg+xml</dc:format>
        <dc:type rdf:resource="http://purl.org/dc/dcmitype/StillImage"/>
      </cc:Work>
    </rdf:RDF>
  </metadata>
  <defs id="defs5">
    <linearGradient id="linearGradient21664">
      <stop style="stop-color:#828282;stop-opacity:1;" offset="0" id="stop21666"/>
      <stop id="stop21672" offset="0.5" style="stop-color:#999999;stop-opacity:1;"/>
      <stop style="stop-color:#7a7a7a;stop-opacity:0;" offset="1" id="stop21668"/>
    </linearGradient>
    <linearGradient id="linearGradient20685">
      <stop style="stop-color:#4d4d4d;stop-opacity:1;" offset="0" id="stop20687"/>
      <stop id="stop20693" offset="0.5" style="stop-color:#b1b1b1;stop-opacity:1;"/>
      <stop style="stop-color:#4d4d4d;stop-opacity:1;" offset="1" id="stop20689"/>
    </linearGradient>
    <linearGradient id="linearGradient19706">
      <stop style="stop-color:#720505;stop-opacity:1;" offset="0" id="stop19708"/>
      <stop id="stop19714" offset="0.5" style="stop-color:#ae0909;stop-opacity:1;"/>
      <stop style="stop-color:#4f0404;stop-opacity:1;" offset="1" id="stop19710"/>
    </linearGradient>
    <linearGradient id="linearGradient15766">
      <stop style="stop-color:#8f8f17;stop-opacity:1;" offset="0" id="stop15768"/>
      <stop id="stop15774" offset="0.5" style="stop-color:#e0e03e;stop-opacity:1;"/>
      <stop style="stop-color:#989819;stop-opacity:1;" offset="1" id="stop15770"/>
    </linearGradient>
    <linearGradient inkscape:collect="always" xlink:href="#linearGradient15766" id="linearGradient18735" x1="88.264366" y1="53.020313" x2="108.30904" y2="53.020313" gradientUnits="userSpaceOnUse"/>
    <linearGradient inkscape:collect="always" xlink:href="#linearGradient21664" id="linearGradient21710" gradientUnits="userSpaceOnUse" x1="31.635368" y1="307.23941" x2="125.78828" y2="658.64154" gradientTransform="matrix(0.6427876,0.7660444,-0.7660444,0.6427876,100.52262,29.247712)"/>
    <linearGradient inkscape:collect="always" xlink:href="#linearGradient20685" id="linearGradient21712" gradientUnits="userSpaceOnUse" x1="22.29365" y1="397.46429" x2="117.31746" y2="488.63889" gradientTransform="matrix(0.6427876,0.7660444,-0.7660444,0.6427876,100.52262,29.247712)"/>
    <linearGradient inkscape:collect="always" xlink:href="#linearGradient15766" id="linearGradient21714" gradientUnits="userSpaceOnUse" x1="84.452896" y1="211.51543" x2="103.41724" y2="211.51543" gradientTransform="matrix(0.6427876,0.7660444,-0.7660444,0.6427876,100.52262,29.247712)"/>
    <linearGradient inkscape:collect="always" xlink:href="#linearGradient19706" id="linearGradient21716" gradientUnits="userSpaceOnUse" x1="82.300545" y1="125.34444" x2="105.54368" y2="125.34444" gradientTransform="matrix(0.6427876,0.7660444,-0.7660444,0.6427876,100.52262,29.247712)"/>
    <linearGradient inkscape:collect="always" xlink:href="#linearGradient15766" id="linearGradient21718" gradientUnits="userSpaceOnUse" x1="88.264366" y1="53.020313" x2="108.30904" y2="53.020313" gradientTransform="matrix(0.6427876,0.7660444,-0.7660444,0.6427876,100.52262,29.247712)"/>
    <linearGradient inkscape:collect="always" xlink:href="#linearGradient15766" id="linearGradient21720" gradientUnits="userSpaceOnUse" x1="88.264366" y1="53.020313" x2="108.30904" y2="53.020313" gradientTransform="matrix(0.6427876,0.7660444,-0.7660444,0.6427876,100.52262,29.247712)"/>
    <linearGradient inkscape:collect="always" xlink:href="#linearGradient15766" id="linearGradient21722" gradientUnits="userSpaceOnUse" x1="88.264366" y1="53.020313" x2="108.30904" y2="53.020313" gradientTransform="matrix(0.6427876,0.7660444,-0.7660444,0.6427876,100.52262,29.247712)"/>
    <linearGradient inkscape:collect="always" xlink:href="#linearGradient15766" id="linearGradient21724" gradientUnits="userSpaceOnUse" x1="88.264366" y1="53.020313" x2="108.30904" y2="53.020313" gradientTransform="matrix(0.6427876,0.7660444,-0.7660444,0.6427876,100.52262,29.247712)"/>
    <linearGradient inkscape:collect="always" xlink:href="#linearGradient15766" id="linearGradient21726" gradientUnits="userSpaceOnUse" x1="88.264366" y1="53.020313" x2="108.30904" y2="53.020313" gradientTransform="matrix(0.6427876,0.7660444,-0.7660444,0.6427876,100.52262,29.247712)"/>
    <path id="trefle" d="M 172.3558,218.43652 C 170.09897,218.43652 168.27013,220.36237 168.27013,222.73968 C 168.27013,223.25832 168.34965,223.75717 168.50919,224.21753 C 168.37869,224.20433 168.25165,224.1958 168.11801,224.1958 C 167.282,224.1958 166.50519,224.4594 165.85785,224.91299 C 165.86809,224.78941 165.87958,224.66988 165.87958,224.54353 C 165.87958,222.16622 164.029,220.24037 161.77218,220.24037 C 159.51536,220.24037 157.68651,222.16622 157.68651,224.54353 C 157.68651,226.92084 159.51535,228.84669 161.77218,228.84669 C 162.60819,228.84669 163.40297,228.58309 164.05407,228.12949 C 164.04395,228.25307 164.03234,228.37261 164.03234,228.49896 C 164.03234,229.45272 164.33817,230.32851 164.83643,231.04173 C 164.59658,230.99576 164.34952,230.97653 164.09753,230.97653 C 161.84071,230.97653 160.01187,232.90238 160.01187,235.27969 C 160.01187,237.657 161.8407,239.58285 164.09753,239.58285 C 166.35436,239.58285 168.20494,237.657 168.20494,235.27969 C 168.20494,234.32877 167.90059,233.44901 167.40084,232.73692 C 167.63373,232.78033 167.87326,232.80212 168.11801,232.80212 C 169.03729,232.80212 169.8869,232.47222 170.57375,231.93279 C 170.57057,232.00255 170.57375,232.07953 170.57375,232.15012 C 170.57375,234.52743 172.40259,236.45328 174.65942,236.45328 C 176.91625,236.45327 178.76682,234.52743 178.76682,232.15012 C 178.76682,229.7728 176.91624,227.84696 174.65942,227.84696 C 173.74014,227.84696 172.90799,228.17685 172.22541,228.71629 C 172.22896,228.6431 172.22541,228.57306 172.22541,228.49896 C 172.22541,227.98032 172.14751,227.48146 171.98635,227.0211 C 172.10967,227.0329 172.22955,227.04284 172.3558,227.04284 C 174.61263,227.04284 176.4632,225.11699 176.4632,222.73968 C 176.4632,220.36237 174.61262,218.43652 172.3558,218.43652 z M 172.44273,220.5881 C 173.5706,220.5881 174.48556,221.54731 174.48556,222.73968 C 174.48556,223.93204 173.5706,224.89126 172.44273,224.89126 C 171.31486,224.89125 170.3999,223.93204 170.3999,222.73968 C 170.3999,221.54731 171.31486,220.5881 172.44273,220.5881 z M 161.85911,222.39195 C 162.98698,222.39195 163.90194,223.35116 163.90194,224.54353 C 163.90194,225.73589 162.98698,226.69511 161.85911,226.69511 C 160.73124,226.6951 159.81628,225.73589 159.81628,224.54353 C 159.81628,223.35115 160.73124,222.39195 161.85911,222.39195 z M 168.20494,226.34738 C 169.3328,226.34738 170.24777,227.30659 170.24777,228.49896 C 170.24776,229.69132 169.33281,230.65054 168.20494,230.65054 C 167.07706,230.65053 166.1621,229.69132 166.1621,228.49896 C 166.16209,227.30658 167.07706,226.34738 168.20494,226.34738 z M 174.74635,229.99854 C 175.87422,229.99854 176.78919,230.95776 176.78919,232.15012 C 176.78919,233.34248 175.87422,234.3017 174.74635,234.3017 C 173.61848,234.30169 172.70352,233.34249 172.70352,232.15012 C 172.70352,230.95774 173.61848,229.99854 174.74635,229.99854 z M 164.18446,233.12811 C 165.31234,233.12811 166.2273,234.08733 166.2273,235.27969 C 166.2273,236.47206 165.31234,237.43127 164.18446,237.43127 C 163.0566,237.43126 162.14163,236.47206 162.14163,235.27969 C 162.14163,234.08732 163.05659,233.12811 164.18446,233.12811 z " style="opacity:1;fill:#ffff00;fill-opacity:1;stroke:#000000;stroke-width:0.89999998;stroke-linecap:round;stroke-linejoin:bevel;stroke-miterlimit:4;stroke-dasharray:none;stroke-dashoffset:0;stroke-opacity:1"/>
  </defs>
  <sodipodi:namedview inkscape:window-height="832" inkscape:window-width="1127" inkscape:pageshadow="2" inkscape:pageopacity="0.0" guidetolerance="10.0" gridtolerance="10.0" objecttolerance="10.0" borderopacity="1.0" bordercolor="#666666" pagecolor="#ffffff" id="base" inkscape:zoom="0.74453026" inkscape:cx="101.5812" inkscape:cy="357.74545" inkscape:window-x="145" inkscape:window-y="110" inkscape:current-layer="layer2"/>
  <!-- <g inkscape:groupmode="layer" id="layer1" inkscape:label="fond" transform="translate(0,-30)"/> -->
  <g inkscape:groupmode="layer" id="layer2" inkscape:label="work" transform="translate(-30,185) rotate(-91)">
    
      <path sodipodi:nodetypes="cssscc" id="path3135" d="M 81.25929,207.36666 C 81.25929,207.36666 74.819102,648.09265 75.21521,661.97903 C 75.611318,675.86541 76.591496,693.98616 82.77031,693.9916 C 88.818899,693.99677 90.860596,676.34444 91.332755,661.97903 C 95.33588,540.18411 105.43561,207.92793 105.43561,207.92793 L 81.25929,207.36666 z " style="fill:#4d4d4d;fill-opacity:1;fill-rule:evenodd;stroke:#000000;stroke-width:1px;stroke-linecap:butt;stroke-linejoin:miter;stroke-opacity:1"/>
      <path sodipodi:nodetypes="cssscc" id="path3137" d="M 84.393095,207.57444 C 84.393095,207.57444 76.484495,643.27711 76.781075,657.02786 C 77.077655,670.77862 78.286403,689.92017 82.912673,689.92554 C 87.441433,689.93066 89.44498,671.73208 89.7985,657.50697 C 92.79576,536.90165 102.49464,208.13022 102.49464,208.13022 L 84.393095,207.57444 z " style="fill:url(#linearGradient21710);fill-opacity:1;fill-rule:nonzero;stroke:#000000;stroke-width:0.99999988px;stroke-linecap:butt;stroke-linejoin:miter;stroke-opacity:1"/>
      <path sodipodi:nodetypes="cccccccc" id="path3141" d="M 17.964347,221.37814 C 42.411483,212.0682 67.877286,198.6836 93.179557,185.95312 C 117.40611,199.90144 141.83335,213.38151 167.38742,224.23229 L 165.54062,227.42222 L 92.843775,198.20917 L 20.650605,225.9112 L 17.124892,225.9112 L 17.964347,221.37814 z " style="fill:#d9d926;fill-opacity:1;fill-rule:evenodd;stroke:#000000;stroke-width:1px;stroke-linecap:butt;stroke-linejoin:miter;stroke-opacity:1"/>
      <path id="path3139" d="M 82.626984,688.5582 L 92.124339,231.73545 L 94.973545,231.73545 L 82.626984,688.5582 z " style="fill:url(#linearGradient21712);fill-opacity:1;fill-rule:evenodd;stroke:#000000;stroke-width:1px;stroke-linecap:butt;stroke-linejoin:miter;stroke-opacity:1"/>
      <path sodipodi:nodetypes="ccccccc" id="path3143" d="M 17.124892,226.41488 L 21.825842,230.94793 C 44.170646,219.62661 68.03663,212.2169 93.51534,208.9542 C 116.99394,213.13999 140.95965,221.70969 164.86905,229.7727 L 167.21953,226.24698 L 92.507993,192.83666 L 17.124892,226.41488 z " style="fill:#c8c837;fill-opacity:1;fill-rule:evenodd;stroke:#000000;stroke-width:1px;stroke-linecap:butt;stroke-linejoin:miter;stroke-opacity:1"/>
      <use href="#trefle" />
      <use transform="translate(-152, -2)" href="#trefle" />
      <path sodipodi:nodetypes="cccscscccc" id="path4124" d="M 84.952894,178.23013 L 84.952894,189.81462 L 89.653844,199.21652 C 89.653844,199.21652 88.772416,225.36556 89.653844,235.64889 C 90.535272,245.93222 93.011666,244.71501 93.011666,244.71501 C 93.011666,244.71501 95.530032,246.268 96.70527,236.15256 C 97.880508,226.03712 97.880508,199.88808 97.880508,199.88808 L 102.58146,190.31829 L 102.91724,178.39802 L 84.952894,178.23013 z " style="fill:url(#linearGradient21714);fill-opacity:1;fill-rule:evenodd;stroke:#000000;stroke-width:1px;stroke-linecap:butt;stroke-linejoin:miter;stroke-opacity:1"/>
      <path sodipodi:nodetypes="ccccc" id="path4126" d="M 91.668538,72.962415 C 88.007388,107.17652 78.954666,169.58441 84.617112,178.06224 L 102.41357,178.06224 C 107.35524,172.02659 104.05867,108.48246 102.74935,72.626633 L 91.668538,72.962415 z " style="fill:url(#linearGradient21716);fill-opacity:1;fill-rule:evenodd;stroke:#000000;stroke-width:1px;stroke-linecap:butt;stroke-linejoin:miter;stroke-opacity:1"/>
      <g style="fill:url(#linearGradient21718);fill-opacity:1" id="g17754">
        <path style="fill:url(#linearGradient21720);fill-opacity:1;fill-rule:evenodd;stroke:#000000;stroke-width:1px;stroke-linecap:butt;stroke-linejoin:miter;stroke-opacity:1" d="M 94.736111,58.646163 C 94.736111,59.595898 93.311508,69.568121 93.311508,69.568121 L 101.85913,69.568121 L 101.85913,58.883597 L 94.736111,58.646163 z " id="path4136" sodipodi:nodetypes="ccccc"/>
        <path style="fill:url(#linearGradient21722);fill-opacity:1;fill-rule:evenodd;stroke:#000000;stroke-width:1px;stroke-linecap:butt;stroke-linejoin:miter;stroke-opacity:1" d="M 97.822751,37.039681 L 97.11045,42.738094 C 97.11045,42.738094 89.42502,45.174029 89.275133,51.523147 C 89.125245,57.634832 93.430224,60.664351 98.297619,60.783068 C 103.16501,60.901785 107.43778,58.189472 107.79498,51.998014 C 108.15113,45.824734 101.62169,42.738094 101.62169,42.738094 L 101.85913,36.564814 L 97.822751,37.039681 z " id="path4130" sodipodi:nodetypes="cczzzccc"/>
        <path style="fill:url(#linearGradient21724);fill-opacity:1;fill-rule:evenodd;stroke:#000000;stroke-width:1px;stroke-linecap:butt;stroke-linejoin:miter;stroke-opacity:1" d="M 92.361773,37.989417 C 90.990423,37.64658 95.805528,32.603725 100.67196,33.24074 C 107.15069,34.088805 107.47822,41.313491 106.84524,41.313491 C 101.64886,36.888439 96.928968,36.751799 92.361773,37.989417 z " id="path4128" sodipodi:nodetypes="cscc"/>
        <path style="fill:url(#linearGradient21726);fill-opacity:1;fill-rule:evenodd;stroke:#000000;stroke-width:1px;stroke-linecap:butt;stroke-linejoin:miter;stroke-opacity:1" d="M 92.361773,68.340214 L 102.33399,68.10278 C 107.20024,68.588336 106.56772,72.761473 101.85913,72.851457 L 92.599206,72.851457 C 88.285231,73.009746 86.837422,68.419358 92.361773,68.340214 z " id="path4134" sodipodi:nodetypes="ccccc"/>
      </g>
      <path transform="translate(0.5036737,1.0073466)" d="M 101.62169 50.692127 A 3.442791 3.2053571 0 1 1  94.736111,50.692127 A 3.442791 3.2053571 0 1 1  101.62169 50.692127 z" sodipodi:ry="3.2053571" sodipodi:rx="3.442791" sodipodi:cy="50.692127" sodipodi:cx="98.178902" id="path4132" style="opacity:1;fill:#000000;fill-opacity:1;stroke:#000000;stroke-width:0.89999998;stroke-linecap:round;stroke-linejoin:bevel;stroke-miterlimit:4;stroke-dasharray:none;stroke-dashoffset:0;stroke-opacity:1" sodipodi:type="arc"/>
    
  </g>
</svg>