<?xml version="1.0" encoding="UTF-8" standalone="no"?>
<!-- Created with Inkscape (http://www.inkscape.org/) -->
<svg xmlns:dc="http://purl.org/dc/elements/1.1/" xmlns:cc="http://creativecommons.org/ns#" xmlns:rdf="http://www.w3.org/1999/02/22-rdf-syntax-ns#" xmlns:svg="http://www.w3.org/2000/svg" xmlns="http://www.w3.org/2000/svg" xmlns:sodipodi="http://sodipodi.sourceforge.net/DTD/sodipodi-0.dtd" xmlns:inkscape="http://www.inkscape.org/namespaces/inkscape" width="110.20955" height="120" id="svg14692" version="1.1" inkscape:version="0.48.1 " sodipodi:docname="Nouveau document 39">
  <defs id="defs14694"/>
  <sodipodi:namedview id="base" pagecolor="#ffffff" bordercolor="#666666" borderopacity="1.0" inkscape:pageopacity="0.0" inkscape:pageshadow="2" inkscape:zoom="2.2216391" inkscape:cx="55.104774" inkscape:cy="53.113937" inkscape:document-units="px" inkscape:current-layer="layer1" showgrid="false" fit-margin-top="0" fit-margin-left="0" fit-margin-right="0" fit-margin-bottom="0" inkscape:window-width="511" inkscape:window-height="438" inkscape:window-x="150" inkscape:window-y="150" inkscape:window-maximized="0"/>
  <metadata id="metadata14697">
    <rdf:RDF>
      <cc:Work rdf:about="">
        <dc:format>image/svg+xml</dc:format>
        <dc:type rdf:resource="http://purl.org/dc/dcmitype/StillImage"/>
        <dc:title/>
      </cc:Work>
    </rdf:RDF>
  </metadata>
  <g inkscape:label="Calque 1" inkscape:groupmode="layer" id="layer1" transform="translate(-319.89323,-479.25263)">
    <g style="stroke:#000000;stroke-width:3.88579488;stroke-miterlimit:4;stroke-opacity:1;stroke-dasharray:none;display:inline" id="g3827" transform="matrix(0.3824523,0,0,0.3824523,328.82659,475.4197)">
      <path inkscape:connector-curvature="0" sodipodi:nodetypes="cccsc" id="path3829" d="m 112.13555,266.01311 c -0.43674,6.51297 1.49427,12.9734 8.54801,18.41629 4.27046,-4.05097 9.67423,-8.96863 8.54801,-18.41629 -2.28105,-0.57026 -6.04206,0 -8.54801,0 -2.24619,0 -6.39019,-0.86313 -8.54801,0 z" style="fill:#fcef3c;fill-opacity:1;fill-rule:evenodd;stroke:#000000;stroke-width:3.88579488;stroke-linecap:butt;stroke-linejoin:miter;stroke-miterlimit:4;stroke-opacity:1;stroke-dasharray:none"/>
      <g style="stroke:#000000;stroke-width:3.88579488;stroke-miterlimit:4;stroke-opacity:1;stroke-dasharray:none" transform="translate(1.197431,0)" id="g3831">
        <path inkscape:connector-curvature="0" sodipodi:nodetypes="csccccc" id="path3833" d="m 108.78797,24.753068 c 0,5.043771 0.13687,4.32167 2.44948,7.827913 1.35813,2.059116 4.44132,5.723519 7.45979,11.271439 l -4.05138,2.899865 c -2.33274,-3.656018 -5.94642,-9.173148 -8.20808,-12.294566 -3.56737,-4.756492 -1.80519,-3.676573 -6.29623,-5.922092 -9.516018,-9.436435 7.35135,-17.903598 8.64642,-3.782559 z" style="fill:#fcef3c;fill-opacity:1;fill-rule:evenodd;stroke:#000000;stroke-width:3.88579488;stroke-linecap:butt;stroke-linejoin:miter;stroke-miterlimit:4;stroke-opacity:1;stroke-dasharray:none"/>
        <path inkscape:connector-curvature="0" style="fill:#fcef3c;fill-opacity:1;fill-rule:evenodd;stroke:#000000;stroke-width:3.88579488;stroke-linecap:butt;stroke-linejoin:miter;stroke-miterlimit:4;stroke-opacity:1;stroke-dasharray:none" d="m 130.27688,24.753068 c 0,5.043771 -0.13687,4.32167 -2.44948,7.827913 -1.35813,2.059116 -4.44132,5.723519 -7.45979,11.271439 l 4.05138,2.899865 c 2.33274,-3.656018 5.94642,-9.173148 8.20808,-12.294566 3.56737,-4.756492 1.80519,-3.676573 6.29623,-5.922092 9.51602,-9.436435 -7.35135,-17.903598 -8.64642,-3.782559 z" id="path3835" sodipodi:nodetypes="csccccc"/>
      </g>
      <path inkscape:connector-curvature="0" sodipodi:nodetypes="ccccccc" id="path3837" style="fill:#fcef3c;fill-opacity:1;fill-rule:nonzero;stroke:#000000;stroke-width:3.88579488;stroke-linecap:round;stroke-linejoin:round;stroke-miterlimit:4;stroke-opacity:1;stroke-dasharray:none;stroke-dashoffset:0;marker:none;visibility:visible;display:inline;overflow:visible" d="m 130.38767,43.966091 c 4.18099,8.78144 10.31803,11.23535 21.58666,17.99221 5.16322,3.55419 9.51469,17.66728 -4.01523,26.50779 -19.82121,9.888195 -34.73057,11.365871 -54.458488,0 -13.52992,-8.84051 -9.17845,-22.9536 -4.01523,-26.50779 11.268628,-6.75686 15.405668,-9.21077 19.586658,-17.99221 3.55374,-5.052762 17.7799,-4.720108 21.31563,0 z"/>
      <path inkscape:connector-curvature="0" id="path3839" style="fill:none;stroke:#000000;stroke-width:3.88579488;stroke-linecap:round;stroke-linejoin:round;stroke-miterlimit:4;stroke-opacity:1;stroke-dasharray:none;stroke-dashoffset:0;marker:none;visibility:visible;display:inline;overflow:visible" d="m 133.40553,134.23297 -12.67567,-0.26786 -12.67568,0.26786"/>
      <path inkscape:connector-curvature="0" style="fill:none;stroke:#000000;stroke-width:3.88579488;stroke-linecap:butt;stroke-linejoin:miter;stroke-miterlimit:4;stroke-opacity:1;stroke-dasharray:none" d="m 88.318841,178.59209 c 30.786479,13.25876 47.539699,6.24724 64.822029,0" id="path3841" sodipodi:nodetypes="cc"/>
      <g style="stroke:#000000;stroke-width:3.88579488;stroke-miterlimit:4;stroke-opacity:1;stroke-dasharray:none" transform="translate(-1.338048e-6,0)" id="g3843">
        <path inkscape:connector-curvature="0" style="fill:#fcef3c;fill-opacity:1;fill-rule:evenodd;stroke:#000000;stroke-width:3.88579488;stroke-linecap:butt;stroke-linejoin:miter;stroke-miterlimit:4;stroke-opacity:1;stroke-dasharray:none" d="m 137.85218,146.37797 c 8.42276,-4.50624 17.68362,24.90505 28.87992,23.60371 4.90782,0 3.00914,-2.48533 3.91377,8.29411 3.27803,0.16052 1.46528,45.45127 -0.23848,51.59975 -3.326,12.00284 -2.58129,0.93464 2.35799,11.80762 3.89769,8.58003 9.80528,13.29867 13.53359,21.50589 2.6573,5.84959 7.07087,1.93246 10.533,4.98323 4.96671,4.37655 0.11057,17.10611 -2.40665,17.65942 -1.18314,0.26005 -6.19584,-12.36161 -9.62664,-12.36161 -8.82074,-7.76329 -13.47229,-19.68539 -19.62587,-30.12811 -1.92851,-19.11442 0.38826,-52.9797 -1.13254,-61.8042 -5.0409,6.10805 -16.94415,-29.69244 -26.18809,-28.09603 l 0,-7.06378 z" id="path3845" sodipodi:nodetypes="cccsssssccccc"/>
        <path inkscape:connector-curvature="0" sodipodi:nodetypes="cccsssssccccc" id="path3847" d="m 103.60753,146.37797 c -8.422759,-4.50624 -17.683614,24.90505 -28.879916,23.60371 -4.907817,0 -3.009144,-2.48533 -3.913773,8.29411 -3.278026,0.16052 -1.465279,45.45127 0.238481,51.59975 3.326002,12.00284 2.581297,0.93464 -2.357992,11.80762 -3.897689,8.58003 -9.805274,13.29867 -13.533582,21.50589 -2.657305,5.84959 -7.070873,1.93246 -10.533003,4.98323 -4.966712,4.37655 -0.110566,17.10611 2.406652,17.65942 1.183136,0.26005 6.195835,-12.36161 9.626641,-12.36161 8.820733,-7.76329 13.472287,-19.68539 19.625869,-30.12811 1.928507,-19.11442 -0.388266,-52.9797 1.13254,-61.8042 5.040902,6.10805 16.94415,-29.69244 26.188083,-28.09603 l 0,-7.06378 z" style="fill:#fcef3c;fill-opacity:1;fill-rule:evenodd;stroke:#000000;stroke-width:3.88579488;stroke-linecap:butt;stroke-linejoin:miter;stroke-miterlimit:4;stroke-opacity:1;stroke-dasharray:none"/>
      </g>
      <g style="stroke:#000000;stroke-width:3.88579488;stroke-miterlimit:4;stroke-opacity:1;stroke-dasharray:none" transform="translate(1.777092e-6,0)" id="g3849">
        <path inkscape:connector-curvature="0" id="path3851" style="fill:#fcef3c;fill-opacity:1;fill-rule:evenodd;stroke:#000000;stroke-width:3.88579488;stroke-linecap:butt;stroke-linejoin:miter;stroke-miterlimit:4;stroke-opacity:1;stroke-dasharray:none" d="m 143.59464,257.35558 c 10.30784,-18.4656 19.93174,-37.2951 10.54841,-77.82765 -1.56005,-9.04915 -1.47301,-23.4754 -9.0415,-28.67335 -1.16904,-0.80288 -9.73256,-10.6501 -10.54842,-10.6501 -8.2758,-4.08701 -17.36323,-4.64412 -27.64656,0 -0.81586,0 -9.379373,9.84722 -10.548413,10.6501 -7.56849,5.19795 -7.48144,19.6242 -9.0415,28.67335 -9.38333,40.53255 0.24058,59.36205 10.54841,77.82765 15.711553,17.93876 30.075553,17.89227 45.729573,0 z" sodipodi:nodetypes="ccsccsccc"/>
        <path inkscape:connector-curvature="0" style="fill:none;stroke:#000000;stroke-width:3.88579488;stroke-linecap:butt;stroke-linejoin:miter;stroke-miterlimit:4;stroke-opacity:1;stroke-dasharray:none" d="m 88.318838,178.59209 c 30.786482,13.25876 47.539702,6.24724 64.822032,0" id="path3853" sodipodi:nodetypes="cc"/>
        <path inkscape:connector-curvature="0" style="fill:none;stroke:#000000;stroke-width:3.88579488;stroke-linecap:butt;stroke-linejoin:miter;stroke-miterlimit:4;stroke-opacity:1;stroke-dasharray:none" d="m 84.295599,206.97987 c 34.608071,13.15975 53.440891,6.20059 72.868511,0" id="path3855" sodipodi:nodetypes="cc"/>
        <path inkscape:connector-curvature="0" style="fill:none;stroke:#000000;stroke-width:3.88579488;stroke-linecap:butt;stroke-linejoin:miter;stroke-miterlimit:4;stroke-opacity:1;stroke-dasharray:none" d="m 86.882186,233.58534 c 32.151134,13.22264 49.646964,6.23022 67.695344,0" id="path3857" sodipodi:nodetypes="cc"/>
        <path inkscape:connector-curvature="0" sodipodi:nodetypes="cc" id="path3859" d="m 96.635771,254.33553 c 21.786899,13.52333 35.957849,6.3719 48.188169,0" style="fill:none;stroke:#000000;stroke-width:3.88579488;stroke-linecap:butt;stroke-linejoin:miter;stroke-miterlimit:4;stroke-opacity:1;stroke-dasharray:none"/>
      </g>
      <g style="stroke:#000000;stroke-width:3.88579488;stroke-miterlimit:4;stroke-opacity:1;stroke-dasharray:none" id="g3861">
        <path inkscape:connector-curvature="0" sodipodi:nodetypes="ccssssscc" id="path3863" d="m 145.56352,111.16757 c 46.22738,42.32734 78.36178,80.45214 109.97045,132.7329 7.30076,12.23213 10.52223,29.60705 3.17096,33.67248 -6.1345,3.39251 -21.04893,-6.02422 -29.52275,-9.92284 -27.00637,-12.42504 -59.75383,-32.09995 -74.70278,-56.73518 -5.21587,-8.59554 -11.91635,-24.14741 -12.90619,-33.29697 -1.08988,-10.07432 4.04834,-13.77727 9.73063,-23.85433 6.10101,-10.81961 -7.35425,-20.76551 -12.68655,-31.34144 2.10553,-6.53669 1.34039,-9.08845 6.94623,-11.25462 z" style="fill:#fcef3c;fill-opacity:1;fill-rule:evenodd;stroke:#000000;stroke-width:3.88579488;stroke-linecap:butt;stroke-linejoin:miter;stroke-miterlimit:4;stroke-opacity:1;stroke-dasharray:none"/>
        <path inkscape:connector-curvature="0" style="fill:#fcef3c;fill-opacity:1;fill-rule:evenodd;stroke:#000000;stroke-width:3.88579488;stroke-linecap:butt;stroke-linejoin:miter;stroke-miterlimit:4;stroke-opacity:1;stroke-dasharray:none" d="m 95.896196,111.16757 c -46.227377,42.32734 -78.361781,80.45214 -109.970456,132.7329 -7.300755,12.23213 -10.522231,29.60705 -3.170954,33.67248 6.134495,3.39251 21.0489301,-6.02422 29.522744,-9.92284 27.00637,-12.42504 59.75383,-32.09995 74.70278,-56.73518 5.215877,-8.59554 11.916359,-24.14741 12.906191,-33.29697 1.089879,-10.07432 -4.04834,-13.77727 -9.730631,-23.85433 -6.10101,-10.81961 7.35425,-20.76551 12.68655,-31.34144 -2.10553,-6.53669 -1.34039,-9.08845 -6.946224,-11.25462 z" id="path3865" sodipodi:nodetypes="ccssssscc"/>
      </g>
      <g style="stroke:#000000;stroke-width:3.88579488;stroke-miterlimit:4;stroke-opacity:1;stroke-dasharray:none" transform="translate(-1.345099e-6,0)" id="g3867">
        <path inkscape:connector-curvature="0" sodipodi:nodetypes="cccssssssscccc" id="path3869" d="m 138.32847,112.13475 c 8.59371,2.08861 18.04253,5.12636 29.46608,5.72952 5.00743,0 3.07022,1.15193 3.99321,-3.84426 3.34456,-0.0744 7.6168,-23.847296 5.87846,-26.697076 -3.39351,-5.56323 -2.63369,-0.4332 2.40585,-5.47275 3.9768,-3.97679 7.65505,-5.19953 11.45903,-9.003517 2.71124,-2.711243 9.56363,-1.860005 13.09603,-3.274008 5.06752,-2.028506 0.11281,-7.928563 -2.4555,-8.185019 -1.20715,-0.120539 -6.32159,5.729514 -9.82203,5.729514 -0.29731,0 -7.34088,3.649521 -9.0943,4.911011 -4.55495,3.277041 -6.73284,6.046078 -10.92991,9.053169 -1.96765,8.8594 -2.78908,25.086586 -4.34076,29.176676 -5.14321,-2.83104 -20.22461,-0.65735 -29.65616,-1.39727 l 0,3.27401 z" style="fill:#fcef3c;fill-opacity:1;fill-rule:evenodd;stroke:#000000;stroke-width:3.88579488;stroke-linecap:butt;stroke-linejoin:miter;stroke-miterlimit:4;stroke-opacity:1;stroke-dasharray:none"/>
        <path inkscape:connector-curvature="0" style="fill:#fcef3c;fill-opacity:1;fill-rule:evenodd;stroke:#000000;stroke-width:3.88579488;stroke-linecap:butt;stroke-linejoin:miter;stroke-miterlimit:4;stroke-opacity:1;stroke-dasharray:none" d="m 103.13124,112.13475 c -8.593705,2.08861 -18.042525,5.12636 -29.466075,5.72952 -5.00743,0 -3.07022,1.15193 -3.99321,-3.84426 -3.34456,-0.0744 -7.6168,-23.847296 -5.87846,-26.697076 3.39351,-5.56323 2.63369,-0.4332 -2.40585,-5.47275 -3.9768,-3.97679 -7.65505,-5.19953 -11.45903,-9.003517 -2.71124,-2.711243 -9.56363,-1.860005 -13.09603,-3.274008 -5.06752,-2.028506 -0.11281,-7.928563 2.4555,-8.185019 1.20715,-0.120539 6.32159,5.729514 9.82203,5.729514 0.29731,0 7.34088,3.649521 9.0943,4.911011 4.55495,3.277041 6.732842,6.046078 10.92991,9.053169 1.96765,8.8594 2.789084,25.086586 4.340758,29.176676 5.143216,-2.83104 20.224612,-0.65735 29.656157,-1.39727 l 0,3.27401 z" id="path3871" sodipodi:nodetypes="cccssssssscccc"/>
      </g>
      <g style="stroke:#000000;stroke-width:3.81953907;stroke-miterlimit:4;stroke-opacity:1;stroke-dasharray:none" transform="matrix(1.034994,0,0,1,-4.224821,3.274008)" id="g3873">
        <path inkscape:connector-curvature="0" inkscape:transform-center-y="7.3665168" inkscape:transform-center-x="-16.896372" style="fill:#fcef3c;fill-opacity:1;fill-rule:evenodd;stroke:#000000;stroke-width:3.81953907;stroke-linecap:butt;stroke-linejoin:miter;stroke-miterlimit:4;stroke-opacity:1;stroke-dasharray:none" d="m 137.29124,93.457449 c 7.86036,-4.053256 14.9886,-11.949832 24.01332,-18.979469 3.78268,-3.281115 5.09977,-3.167266 2.52326,-7.54624 2.47778,-2.247723 -3.99031,-20.6904 -7.05257,-22.019169 -3.89373,-1.689557 -2.27338,1.398478 -1.76861,-5.710617 2.42403,-4.452377 1.43368,-13.170806 4.20368,-17.782501 2.29725,-3.824646 4.5588,-4.199024 6.30069,-7.581782 2.49889,-4.852848 -5.10996,-6.0632556 -7.21814,-4.574104 -0.99088,0.699928 -0.44238,6.444676 -3.08666,8.738337 -6.52638,6.592114 -4.03871,17.995342 -6.5553,25.695257 2.87181,9.139341 6.65348,16.40261 11.03462,23.379896 -9.67517,4.64462 -14.90435,16.260406 -22.51389,21.881473 l 0.1196,4.498919 z" id="path3875" sodipodi:nodetypes="cccscsssccccc"/>
        <path inkscape:connector-curvature="0" sodipodi:nodetypes="cccscsssccccc" id="path3877" d="M 104.16847,93.457449 C 96.308114,89.404193 89.179871,81.507617 80.155155,74.47798 c -3.782677,-3.281115 -5.099774,-3.167266 -2.523263,-7.54624 -2.477773,-2.247723 3.990312,-20.6904 7.052574,-22.019169 3.89373,-1.689557 2.273377,1.398478 1.768605,-5.710617 C 84.029045,34.749577 85.01939,26.031148 82.249399,21.419453 79.952146,17.594807 77.690598,17.220429 75.948703,13.837671 73.44981,8.984823 81.058669,7.7744154 83.166846,9.263567 c 0.990879,0.699928 0.442382,6.444676 3.08666,8.738337 6.526382,6.592114 4.038709,17.995342 6.555294,25.695257 -2.871805,9.139341 -6.653473,16.40261 -11.034615,23.379896 9.675169,4.64462 14.904345,16.260406 22.513885,21.881473 l -0.1196,4.498919 z" style="fill:#fcef3c;fill-opacity:1;fill-rule:evenodd;stroke:#000000;stroke-width:3.81953907;stroke-linecap:butt;stroke-linejoin:miter;stroke-miterlimit:4;stroke-opacity:1;stroke-dasharray:none" inkscape:transform-center-x="16.896372" inkscape:transform-center-y="7.3665168"/>
      </g>
      <path inkscape:connector-curvature="0" sodipodi:nodetypes="ccccccccc" d="m 128.88127,148.77724 c 17.49108,-6.17734 27.50343,-25.52816 20.01105,-29.58309 5.69231,-2.27185 9.57847,-9.73599 10.88661,-15.53055 0.23166,-12.620595 -2.95797,-23.146205 -8.86,-28.617036 -16.79657,-10.747558 -43.67588,-11.599672 -60.378147,0 -5.902033,5.470831 -9.091662,15.996441 -8.860002,28.617036 1.308135,5.79456 5.194297,13.2587 10.88661,15.53055 -7.492377,4.05493 2.519964,23.40575 20.011049,29.58309 3.5511,1.31245 12.95981,2.47755 16.30283,0 z" style="fill:#fcef3c;fill-opacity:1;fill-rule:evenodd;stroke:#000000;stroke-width:3.88579488;stroke-linecap:butt;stroke-linejoin:miter;stroke-miterlimit:4;stroke-opacity:1;stroke-dasharray:none" id="path3879"/>
      <path inkscape:connector-curvature="0" sodipodi:nodetypes="cc" id="path3881" d="m 88.318834,105.08853 c 30.786496,13.25876 47.539716,6.24724 64.822046,0" style="fill:none;stroke:#000000;stroke-width:3.88579488;stroke-linecap:butt;stroke-linejoin:miter;stroke-miterlimit:4;stroke-opacity:1;stroke-dasharray:none"/>
      <g style="stroke:#000000;stroke-width:3.88579488;stroke-miterlimit:4;stroke-opacity:1;stroke-dasharray:none" transform="translate(0.184194,0)" id="g3883">
        <path inkscape:connector-curvature="0" style="fill:#fcef3c;fill-opacity:1;fill-rule:evenodd;stroke:#000000;stroke-width:3.88579488;stroke-linecap:butt;stroke-linejoin:miter;stroke-miterlimit:4;stroke-opacity:1;stroke-dasharray:none" d="m 86.815232,76.150114 c -3.878347,-8.210528 -0.03064,-13.877896 4.611877,-19.054757 7.595597,-8.469836 21.387721,-12.715235 27.386791,-3.044882 1.81121,2.919624 1.70177,6.949437 1.56989,12.260579 -4.05119,-2.585897 -34.118638,8.502898 -33.568558,9.83906 z" id="path3885" sodipodi:nodetypes="csscc"/>
        <path inkscape:connector-curvature="0" sodipodi:nodetypes="csscc" id="path3887" d="m 154.27609,76.150114 c 3.87835,-8.210528 0.0306,-13.877896 -4.61187,-19.054757 -7.5956,-8.469836 -21.38772,-12.715235 -27.38679,-3.044882 -1.81121,2.919624 -1.70177,6.949437 -1.56989,12.260579 4.05119,-2.585897 34.11863,8.502898 33.56855,9.83906 z" style="fill:#fcef3c;fill-opacity:1;fill-rule:evenodd;stroke:#000000;stroke-width:3.88579488;stroke-linecap:butt;stroke-linejoin:miter;stroke-miterlimit:4;stroke-opacity:1;stroke-dasharray:none"/>
      </g>
    </g>
  </g>
</svg>