<?xml version="1.0" encoding="UTF-8" standalone="no"?>
<!-- Created with Inkscape (http://www.inkscape.org/) -->
<svg xmlns:dc="http://purl.org/dc/elements/1.1/" xmlns:cc="http://creativecommons.org/ns#" xmlns:rdf="http://www.w3.org/1999/02/22-rdf-syntax-ns#" xmlns:svg="http://www.w3.org/2000/svg" xmlns="http://www.w3.org/2000/svg" xmlns:sodipodi="http://sodipodi.sourceforge.net/DTD/sodipodi-0.dtd" xmlns:inkscape="http://www.inkscape.org/namespaces/inkscape" width="210mm" height="250mm" id="svg2961" version="1.1" inkscape:version="0.48.5 r10040" sodipodi:docname="meuble_héraldique_crave.svg">
  <defs id="defs2963">
    <inkscape:perspective sodipodi:type="inkscape:persp3d" inkscape:vp_x="0 : 526.18109 : 1" inkscape:vp_y="0 : 1000 : 0" inkscape:vp_z="744.09448 : 526.18109 : 1" inkscape:persp3d-origin="372.04724 : 350.78739 : 1" id="perspective2969"/>
    <inkscape:perspective id="perspective4298" inkscape:persp3d-origin="372.04724 : 350.78739 : 1" inkscape:vp_z="744.09448 : 526.18109 : 1" inkscape:vp_y="0 : 1000 : 0" inkscape:vp_x="0 : 526.18109 : 1" sodipodi:type="inkscape:persp3d"/>
  </defs>
  <sodipodi:namedview id="base" pagecolor="#ffffff" bordercolor="#666666" borderopacity="1.0" inkscape:pageopacity="0.0" inkscape:pageshadow="2" inkscape:zoom="0.55494202" inkscape:cx="372.04724" inkscape:cy="526.18109" inkscape:document-units="px" inkscape:current-layer="layer1" showgrid="false" inkscape:window-width="1536" inkscape:window-height="801" inkscape:window-x="-8" inkscape:window-y="-8" inkscape:window-maximized="1" showguides="true" inkscape:guide-bbox="true"/>
  <metadata id="metadata2966">
    <rdf:RDF>
      <cc:Work rdf:about="">
        <dc:format>image/svg+xml</dc:format>
        <dc:type rdf:resource="http://purl.org/dc/dcmitype/StillImage"/>
        <dc:title/>
      </cc:Work>
    </rdf:RDF>
  </metadata>
  <g inkscape:label="Calque 1" inkscape:groupmode="layer" id="layer1">
    <g id="g13807" inkscape:label="Calque 1" transform="matrix(0.4835104,-0.45859425,0.44336823,0.92814495,-616.04998,262.44152)" style="stroke:none">
      <g transform="translate(-729.826,76.7478)" id="g13809" style="stroke:none;display:inline">
        <g id="g13813" transform="translate(638,-306)" style="stroke:none"/>
      </g>
    </g>
    <path id="path13115" d="M -255.60522,461.00319 -103.47213,605.0347" style="fill:none;stroke:none" sodipodi:nodetypes="cc" inkscape:connector-curvature="0"/>
    <g id="g17268" transform="matrix(-0.89009647,0,0,0.99384186,1211.3537,-50.901565)">
      <path inkscape:connector-curvature="0" style="fill:none;stroke:#dfd9d9;stroke-width:1.9601537px;stroke-linecap:butt;stroke-linejoin:miter;stroke-opacity:0.50196078" d="m 457.76457,522.45886 c -7.67087,60.82364 -45.99016,61.86349 -73.56488,80.13197" id="path17101" sodipodi:nodetypes="cc"/>
      <path inkscape:connector-curvature="0" style="fill:none;stroke:#dfd9d9;stroke-width:1.9601537px;stroke-linecap:butt;stroke-linejoin:miter;stroke-opacity:0.50196078" d="m 397.36206,508.10645 c -0.91181,41.41687 -59.89822,56.31848 -63.05561,73.96796" id="path17103" sodipodi:nodetypes="cc"/>
      <path inkscape:connector-curvature="0" sodipodi:nodetypes="cc" id="path20985" d="m 418.13164,522.45886 c -7.67087,60.82364 -45.99017,61.86349 -73.56489,80.13197" style="fill:none;stroke:#dfd9d9;stroke-width:1.9601537px;stroke-linecap:butt;stroke-linejoin:miter;stroke-opacity:0.50196078"/>
      <path inkscape:connector-curvature="0" sodipodi:nodetypes="ccc" id="path7470" d="M 432.80736,450.21932 C 356.83929,527.14047 274.90528,587.65529 191.37878,643.79075 l 0,0" style="fill:none;stroke:#dfd9d9;stroke-width:2.12643766;stroke-linecap:butt;stroke-linejoin:miter;stroke-miterlimit:4;stroke-opacity:0.50196078;stroke-dasharray:none"/>
      <path inkscape:connector-curvature="0" sodipodi:nodetypes="cc" id="path8441" d="m 255.98923,615.97628 c 41.69474,-24.84368 77.46012,-53.64027 111.11678,-83.84266" style="fill:none;stroke:#dfd9d9;stroke-width:2.12643766;stroke-linecap:butt;stroke-linejoin:miter;stroke-miterlimit:4;stroke-opacity:0.50196078;stroke-dasharray:none"/>
      <path inkscape:connector-curvature="0" sodipodi:nodetypes="cc" id="path9412" d="M 262.55522,560.92297 C 320.81853,530.45873 362.9454,487.44393 410.03749,448.29096" style="fill:none;stroke:#dfd9d9;stroke-width:2.12643766;stroke-linecap:butt;stroke-linejoin:miter;stroke-miterlimit:4;stroke-opacity:0.50196078;stroke-dasharray:none"/>
    </g>
    <g id="g11053" transform="matrix(1.6073247,0,0,1.6073247,-98.558822,-329.25895)">
      <path inkscape:connector-curvature="0" id="path2324" style="fill:#e20909;fill-rule:evenodd;stroke:#000000;stroke-width:2.5999999;stroke-linecap:round;stroke-linejoin:round;stroke-miterlimit:4;stroke-opacity:1;stroke-dasharray:none" d="m 209.75939,659.06525 c -5.21552,1.0802 -6.88672,4.81865 -9.78482,7.63694 5.13278,-2.22744 10.02824,-4.45488 15.75116,-6.68232 l -5.96634,-0.95462 z"/>
      <path inkscape:connector-curvature="0" id="path2326" style="fill:#e20909;fill-rule:evenodd;stroke:#000000;stroke-width:2.5999999;stroke-linecap:round;stroke-linejoin:round;stroke-miterlimit:4;stroke-opacity:1;stroke-dasharray:none;display:inline" d="m 243.34847,657.14546 c -6.33109,-1.31686 -12.75534,-3.79157 -18.89968,-2.78845 -6.87332,0.79842 -12.64893,2.53102 -16.78306,5.66052 0.78036,1.2012 0.56699,2.77489 5.46323,2.43338 l 9.50436,-3.87752 22.10707,3.96686 6.37357,-4.1044 -7.76549,-1.29039 z"/>
      <path inkscape:connector-curvature="0" id="path2328" style="fill:#e20909;fill-rule:evenodd;stroke:#000000;stroke-width:2.5999999;stroke-linecap:round;stroke-linejoin:round;stroke-miterlimit:4;stroke-opacity:1;stroke-dasharray:none" d="m 268.79449,657.98857 c 9.25754,-1.66621 11.04631,8.59226 11.57008,13.46015 -3.19485,-5.66292 -6.04459,-11.47733 -13.52545,-10.47925 l 1.95537,-2.9809 z"/>
      <path inkscape:connector-curvature="0" id="path2330" style="fill:#e20909;fill-rule:evenodd;stroke:#000000;stroke-width:2.5999999;stroke-linecap:round;stroke-linejoin:round;stroke-miterlimit:4;stroke-opacity:1;stroke-dasharray:none" d="m 214.44986,681.13803 c -4.76741,2.37492 -5.42967,6.41601 -7.51297,9.88033 4.39477,-3.46307 8.56007,-6.86563 13.52545,-10.47924 l -6.01248,0.59891 z"/>
      <path inkscape:connector-curvature="0" id="path2332" style="fill:#e20909;fill-rule:evenodd;stroke:#000000;stroke-width:2.5999999;stroke-linecap:round;stroke-linejoin:round;stroke-miterlimit:4;stroke-opacity:1;stroke-dasharray:none" d="m 205.70228,671.23661 c -5.21553,1.0802 -6.88673,4.81866 -9.78483,7.63694 5.13278,-2.22744 10.02824,-4.45487 15.75117,-6.68231 l -5.96634,-0.95463 z"/>
      <path inkscape:connector-curvature="0" id="path2334" style="fill:#e20909;fill-rule:evenodd;stroke:#000000;stroke-width:2.5999999;stroke-linecap:round;stroke-linejoin:round;stroke-miterlimit:4;stroke-opacity:1;stroke-dasharray:none" d="m 261.14914,614.70314 c -5.48943,18.8537 -7.37256,27.86855 -14.76948,46.90787 -8.15662,0.86464 -17.6279,0.55465 -25.16487,3.8979 -5.60011,1.33662 -10.46863,3.03904 -14.79658,5.01174 0.70222,1.69905 -0.83565,4.79818 4.53442,3.57982 2.90204,-4.27992 7.90054,-3.31856 11.93273,-4.77309 l 20.04696,-2.38654 -22.67216,8.11425 -5.25039,5.25038 c 0.0557,1.30303 -0.0433,2.69887 3.10251,2.14788 2.87855,-2.19046 5.80072,-4.42455 7.44133,-5.3771 l 14.75351,-1.54386 12.88733,-4.53443 7.15962,-6.92097 c 8.98434,-2.2724 5.33923,-2.56037 10.02348,-0.71599 2.08992,-1.82967 0.91006,-4.13665 0.95463,-5.96634 -2.77595,-0.94676 -2.21073,-0.54541 -4.98668,-0.88025 -3.58818,0.72988 -9.20138,1.35127 -12.78956,5.17604 5.91373,-19.82514 13.30925,-25.31058 18.118,-43.73978 l -10.5248,-3.24753 z"/>
      <path inkscape:connector-curvature="0" id="path2264" style="fill:#e20909;fill-rule:evenodd;stroke:#000000;stroke-width:2.5999999;stroke-linecap:round;stroke-linejoin:round;stroke-miterlimit:4;stroke-opacity:1;stroke-dasharray:none" d="m 274.65639,678.0178 c -5.21552,1.08019 -6.88672,4.81865 -9.78482,7.63693 5.13277,-2.22744 10.02824,-4.45487 15.75116,-6.68231 l -5.96634,-0.95462 z"/>
      <path inkscape:connector-curvature="0" id="path2258" style="fill:#e20909;fill-rule:evenodd;stroke:#000000;stroke-width:2.5999999;stroke-linecap:round;stroke-linejoin:round;stroke-miterlimit:4;stroke-opacity:1;stroke-dasharray:none;display:inline" d="m 308.24547,676.098 c -6.33109,-1.31685 -12.75534,-3.79156 -18.89968,-2.78844 -6.87333,0.79841 -12.64893,2.53102 -16.78306,5.66052 0.78036,1.2012 0.56699,2.77488 5.46323,2.43337 l 9.50436,-3.87752 22.10707,3.96686 6.37357,-4.1044 -7.76549,-1.29039 z"/>
      <path inkscape:connector-curvature="0" id="path2270" style="fill:#e20909;fill-rule:evenodd;stroke:#000000;stroke-width:2.5999999;stroke-linecap:round;stroke-linejoin:round;stroke-miterlimit:4;stroke-opacity:1;stroke-dasharray:none" d="m 333.69149,676.94111 c 9.25754,-1.66621 11.04631,8.59226 11.57008,13.46015 -3.19486,-5.66292 -6.04459,-11.47732 -13.52545,-10.47924 l 1.95537,-2.98091 z"/>
      <path inkscape:connector-curvature="0" id="path2268" style="fill:#e20909;fill-rule:evenodd;stroke:#000000;stroke-width:2.5999999;stroke-linecap:round;stroke-linejoin:round;stroke-miterlimit:4;stroke-opacity:1;stroke-dasharray:none" d="m 279.34686,700.09058 c -4.76741,2.37492 -5.42967,6.416 -7.51297,9.88032 4.39477,-3.46307 8.56007,-6.86562 13.52545,-10.47924 l -6.01248,0.59892 z"/>
      <path inkscape:connector-curvature="0" id="path2266" style="fill:#e20909;fill-rule:evenodd;stroke:#000000;stroke-width:2.5999999;stroke-linecap:round;stroke-linejoin:round;stroke-miterlimit:4;stroke-opacity:1;stroke-dasharray:none" d="m 270.59927,690.18916 c -5.21552,1.0802 -6.88672,4.81865 -9.78482,7.63694 5.13278,-2.22744 10.02824,-4.45488 15.75117,-6.68232 l -5.96635,-0.95462 z"/>
      <path inkscape:connector-curvature="0" id="path2256" style="fill:#e20909;fill-rule:evenodd;stroke:#000000;stroke-width:2.5999999;stroke-linecap:round;stroke-linejoin:round;stroke-miterlimit:4;stroke-opacity:1;stroke-dasharray:none" d="m 330.50147,622.88865 c -5.48943,18.85369 -10.71405,37.70739 -20.52427,56.56106 -8.15662,0.86464 -16.32844,1.6685 -23.86542,5.01174 -5.60011,1.33662 -10.46862,3.03904 -14.79658,5.01174 0.70223,1.69906 -0.83564,4.79818 4.53443,3.57982 2.90203,-4.27991 7.90054,-3.31856 11.93273,-4.77308 l 20.04695,-2.38654 -22.67215,8.11425 -5.25039,5.25037 c 0.0557,1.30304 -0.0433,2.69887 3.10251,2.14789 2.87855,-2.19047 5.80072,-4.42456 7.44133,-5.37711 l 14.75351,-1.54386 12.88733,-4.53443 7.15962,-6.92097 c 8.98434,-2.2724 5.33923,-2.56036 10.02348,-0.71598 2.08992,-1.82968 0.91006,-4.13665 0.95463,-5.96635 -2.77595,-0.94676 -2.21073,-0.54541 -4.98668,-0.88025 -3.58818,0.72988 -7.17633,1.35127 -10.76451,5.17604 4.59722,-19.56966 12.59054,-39.13931 22.91083,-58.70897 l -12.88735,0.95463 z"/>
      <path inkscape:connector-curvature="0" id="path2254" style="fill:#000000;fill-rule:evenodd;stroke:#505050;stroke-width:2.5999999;stroke-linecap:round;stroke-linejoin:round;stroke-miterlimit:4;stroke-opacity:1;stroke-dasharray:none" d="m 235.58044,549.09596 c 11.63907,11.35694 21.88754,53.685 23.10688,68.71952 3.52871,0.60669 3.21466,6.96983 14.37049,3.66213 1.90373,-4.15405 3.81275,-5.648 6.34802,-12.07312 2.24127,-19.3946 -8.05948,-37.83457 -11.13507,-57.22916 l -32.69032,-3.07937 z"/>
      <path inkscape:connector-curvature="0" id="path2250" style="fill:#000000;fill-rule:evenodd;stroke:#505050;stroke-width:2.5999999;stroke-linecap:round;stroke-linejoin:round;stroke-miterlimit:4;stroke-opacity:1;stroke-dasharray:none" d="m 273.29752,400.45346 82.91171,60.36583 67.60464,48.66887 11.82348,10.06195 c 4.13997,4.62866 6.77332,9.16443 2.02376,13.24496 1.58392,23.80635 -95.88818,-41.12499 -143.83229,-61.68747 l -20.5313,-70.65414 z"/>
      <path inkscape:connector-curvature="0" id="path2239" style="fill:#000000;fill-rule:evenodd;stroke:#505050;stroke-width:2.5999999;stroke-linecap:round;stroke-linejoin:round;stroke-miterlimit:4;stroke-opacity:1;stroke-dasharray:none" d="m 289.03621,399.66552 c 39.43427,25.66243 51.21629,54.45083 75.65766,80.78431 l 78.44144,77.42414 c 11.57358,8.1396 25.13864,22.74848 36.71224,22.04453 29.24655,8.92156 36.46545,33.16597 8.1763,19.48317 0,0 -35.30053,-12.41399 -89.8713,-42.1211 -54.24915,-29.532 -89.68725,-37.41237 -139.73789,-65.21449 -46.47539,-25.81615 -64.04187,-91.05143 -64.04187,-91.05143"/>
      <path inkscape:connector-curvature="0" id="path2243" style="fill:#000000;fill-opacity:1;fill-rule:evenodd;stroke:#505050;stroke-width:2.5999999;stroke-linecap:round;stroke-linejoin:round;stroke-miterlimit:4;stroke-opacity:1;stroke-dasharray:none;stroke-dashoffset:0" d="m 192.41425,303.3465 c -0.0713,3.01938 -3.24583,5.16009 -7.08597,4.77837 -3.84011,-0.38171 -6.89885,-3.14205 -6.82752,-6.16143 0.0712,-3.01939 3.24583,-5.16009 7.08597,-4.77836 3.84014,0.38173 6.89885,3.14203 6.82752,6.16142 z"/>
      <path inkscape:connector-curvature="0" id="path2252" style="fill:#000000;fill-rule:evenodd;stroke:#505050;stroke-width:2.5999999;stroke-linecap:round;stroke-linejoin:round;stroke-miterlimit:4;stroke-opacity:1;stroke-dasharray:none" d="m 309.40924,575.44045 15.33199,23.90568 c 2.96405,9.2234 3.90867,17.32334 4.92251,25.4618 2.63792,4.406 6.35925,3.41142 9.86005,3.51605 4.04097,-0.18598 7.27074,-3.96225 10.33001,-8.49309 2.16869,-13.58241 2.22587,-26.99488 0.58944,-40.27103 -1.7415,-11.05896 -3.97007,-18.11274 -3.85459,-29.1951"/>
      <path inkscape:connector-curvature="0" id="path3305" style="fill:none;stroke:#505050;stroke-width:2.5999999;stroke-linecap:round;stroke-linejoin:round;stroke-miterlimit:4;stroke-opacity:1;stroke-dasharray:none;stroke-dashoffset:0" d="m 184.55121,301.30704 c -0.0151,0.74614 -0.67945,1.27512 -1.48333,1.18079 -0.80385,-0.0943 -1.44414,-0.77643 -1.42921,-1.52255 0.0151,-0.74609 0.67947,-1.2751 1.48333,-1.18074 0.80385,0.0943 1.44414,0.77641 1.42921,1.5225 z"/>
      <path inkscape:connector-curvature="0" id="path3307" style="fill:#000000;fill-rule:evenodd;stroke:#505050;stroke-width:2.5999999;stroke-linecap:round;stroke-linejoin:round;stroke-miterlimit:4;stroke-opacity:1;stroke-dasharray:none" d="m 449.48702,583.16522 c -16.01385,-8.46559 -41.58046,-3.90053 -62.03406,-2.59868"/>
      <path inkscape:connector-curvature="0" id="path3309" style="fill:#000000;fill-rule:evenodd;stroke:#505050;stroke-width:2.5999999;stroke-linecap:round;stroke-linejoin:round;stroke-miterlimit:4;stroke-opacity:1;stroke-dasharray:none" d="m 241.48069,409.61869 c -1.56867,64.29464 91.57722,78.97689 137.36582,118.46535"/>
      <path inkscape:connector-curvature="0" id="path3311" style="fill:#000000;fill-rule:evenodd;stroke:#505050;stroke-width:2.5999999;stroke-linecap:round;stroke-linejoin:round;stroke-miterlimit:4;stroke-opacity:1;stroke-dasharray:none" d="m 438.58544,533.14666 c -8.0006,-0.93894 -17.13457,-8.06785 -29.02569,-17.55044"/>
      <path inkscape:connector-curvature="0" id="path3313" style="fill:#000000;fill-rule:evenodd;stroke:#505050;stroke-width:2.5999999;stroke-linecap:round;stroke-linejoin:round;stroke-miterlimit:4;stroke-opacity:1;stroke-dasharray:none" d="m 474.6988,578.98041 c -20.67535,-4.82918 -31.33629,-15.96 -46.91363,-22.54569"/>
      <path inkscape:connector-curvature="0" id="path3315" style="fill:#000000;fill-rule:evenodd;stroke:#505050;stroke-width:2.5999999;stroke-linecap:round;stroke-linejoin:round;stroke-miterlimit:4;stroke-opacity:1;stroke-dasharray:none" d="m 290.75687,441.34445 c 31.9371,45.21561 58.95143,46.1261 88.42714,69.18916"/>
      <path inkscape:connector-curvature="0" id="path3317" style="fill:#000000;fill-rule:evenodd;stroke:#505050;stroke-width:2.5999999;stroke-linecap:round;stroke-linejoin:round;stroke-miterlimit:4;stroke-opacity:1;stroke-dasharray:none" d="m 502.03697,630.349 c -18.87479,-4.37395 -53.6754,-26.74538 -63.11402,-36.45087"/>
      <path inkscape:connector-curvature="0" id="path3319" style="fill:#000000;fill-rule:evenodd;stroke:#505050;stroke-width:2.5999999;stroke-linecap:round;stroke-linejoin:round;stroke-miterlimit:4;stroke-opacity:1;stroke-dasharray:none" d="m 454.78583,614.1486 c 7.72241,8.85579 16.89663,13.45788 26.32563,18.90046"/>
      <g id="g10975">
        <path inkscape:connector-curvature="0" id="path10919" style="fill:#e20909;fill-rule:evenodd;stroke:#000000;stroke-width:2.5999999;stroke-linecap:round;stroke-linejoin:round;stroke-miterlimit:4;stroke-opacity:1;stroke-dasharray:none" d="m 209.75939,659.06525 c -5.21552,1.0802 -6.88672,4.81865 -9.78482,7.63694 5.13278,-2.22744 10.02824,-4.45488 15.75116,-6.68232 l -5.96634,-0.95462 z"/>
        <path inkscape:connector-curvature="0" id="path10921" style="fill:#e20909;fill-rule:evenodd;stroke:#000000;stroke-width:2.5999999;stroke-linecap:round;stroke-linejoin:round;stroke-miterlimit:4;stroke-opacity:1;stroke-dasharray:none;display:inline" d="m 243.34847,657.14546 c -6.33109,-1.31686 -12.75534,-3.79157 -18.89968,-2.78845 -6.87332,0.79842 -12.64893,2.53102 -16.78306,5.66052 0.78036,1.2012 0.56699,2.77489 5.46323,2.43338 l 9.50436,-3.87752 22.10707,3.96686 6.37357,-4.1044 -7.76549,-1.29039 z"/>
        <path inkscape:connector-curvature="0" id="path10923" style="fill:#e20909;fill-rule:evenodd;stroke:#000000;stroke-width:2.5999999;stroke-linecap:round;stroke-linejoin:round;stroke-miterlimit:4;stroke-opacity:1;stroke-dasharray:none" d="m 268.79449,657.98857 c 9.25754,-1.66621 11.04631,8.59226 11.57008,13.46015 -3.19485,-5.66292 -6.04459,-11.47733 -13.52545,-10.47925 l 1.95537,-2.9809 z"/>
        <path inkscape:connector-curvature="0" id="path10925" style="fill:#e20909;fill-rule:evenodd;stroke:#000000;stroke-width:2.5999999;stroke-linecap:round;stroke-linejoin:round;stroke-miterlimit:4;stroke-opacity:1;stroke-dasharray:none" d="m 214.44986,681.13803 c -4.76741,2.37492 -5.42967,6.41601 -7.51297,9.88033 4.39477,-3.46307 8.56007,-6.86563 13.52545,-10.47924 l -6.01248,0.59891 z"/>
        <path inkscape:connector-curvature="0" id="path10927" style="fill:#e20909;fill-rule:evenodd;stroke:#000000;stroke-width:2.5999999;stroke-linecap:round;stroke-linejoin:round;stroke-miterlimit:4;stroke-opacity:1;stroke-dasharray:none" d="m 205.70228,671.23661 c -5.21553,1.0802 -6.88673,4.81866 -9.78483,7.63694 5.13278,-2.22744 10.02824,-4.45487 15.75117,-6.68231 l -5.96634,-0.95463 z"/>
        <path inkscape:connector-curvature="0" id="path10929" style="fill:#e20909;fill-rule:evenodd;stroke:#000000;stroke-width:2.5999999;stroke-linecap:round;stroke-linejoin:round;stroke-miterlimit:4;stroke-opacity:1;stroke-dasharray:none" d="m 261.14914,614.70314 c -5.48943,18.8537 -7.37256,27.86855 -14.76948,46.90787 -8.15662,0.86464 -17.6279,0.55465 -25.16487,3.8979 -5.60011,1.33662 -10.46863,3.03904 -14.79658,5.01174 0.70222,1.69905 -0.83565,4.79818 4.53442,3.57982 2.90204,-4.27992 7.90054,-3.31856 11.93273,-4.77309 l 20.04696,-2.38654 -22.67216,8.11425 -5.25039,5.25038 c 0.0557,1.30303 -0.0433,2.69887 3.10251,2.14788 2.87855,-2.19046 5.80072,-4.42455 7.44133,-5.3771 l 14.75351,-1.54386 12.88733,-4.53443 7.15962,-6.92097 c 8.98434,-2.2724 5.33923,-2.56037 10.02348,-0.71599 2.08992,-1.82967 0.91006,-4.13665 0.95463,-5.96634 -2.77595,-0.94676 -2.21073,-0.54541 -4.98668,-0.88025 -3.58818,0.72988 -9.20138,1.35127 -12.78956,5.17604 5.91373,-19.82514 13.30925,-25.31058 18.118,-43.73978 l -10.5248,-3.24753 z"/>
        <path inkscape:connector-curvature="0" id="path10931" style="fill:#e20909;fill-rule:evenodd;stroke:#000000;stroke-width:2.5999999;stroke-linecap:round;stroke-linejoin:round;stroke-miterlimit:4;stroke-opacity:1;stroke-dasharray:none" d="m 274.65639,678.0178 c -5.21552,1.08019 -6.88672,4.81865 -9.78482,7.63693 5.13277,-2.22744 10.02824,-4.45487 15.75116,-6.68231 l -5.96634,-0.95462 z"/>
        <path inkscape:connector-curvature="0" id="path10933" style="fill:#e20909;fill-rule:evenodd;stroke:#000000;stroke-width:2.5999999;stroke-linecap:round;stroke-linejoin:round;stroke-miterlimit:4;stroke-opacity:1;stroke-dasharray:none;display:inline" d="m 308.24547,676.098 c -6.33109,-1.31685 -12.75534,-3.79156 -18.89968,-2.78844 -6.87333,0.79841 -12.64893,2.53102 -16.78306,5.66052 0.78036,1.2012 0.56699,2.77488 5.46323,2.43337 l 9.50436,-3.87752 22.10707,3.96686 6.37357,-4.1044 -7.76549,-1.29039 z"/>
        <path inkscape:connector-curvature="0" id="path10935" style="fill:#e20909;fill-rule:evenodd;stroke:#000000;stroke-width:2.5999999;stroke-linecap:round;stroke-linejoin:round;stroke-miterlimit:4;stroke-opacity:1;stroke-dasharray:none" d="m 333.69149,676.94111 c 9.25754,-1.66621 11.04631,8.59226 11.57008,13.46015 -3.19486,-5.66292 -6.04459,-11.47732 -13.52545,-10.47924 l 1.95537,-2.98091 z"/>
        <path inkscape:connector-curvature="0" id="path10937" style="fill:#e20909;fill-rule:evenodd;stroke:#000000;stroke-width:2.5999999;stroke-linecap:round;stroke-linejoin:round;stroke-miterlimit:4;stroke-opacity:1;stroke-dasharray:none" d="m 279.34686,700.09058 c -4.76741,2.37492 -5.42967,6.416 -7.51297,9.88032 4.39477,-3.46307 8.56007,-6.86562 13.52545,-10.47924 l -6.01248,0.59892 z"/>
        <path inkscape:connector-curvature="0" id="path10939" style="fill:#e20909;fill-rule:evenodd;stroke:#000000;stroke-width:2.5999999;stroke-linecap:round;stroke-linejoin:round;stroke-miterlimit:4;stroke-opacity:1;stroke-dasharray:none" d="m 270.59927,690.18916 c -5.21552,1.0802 -6.88672,4.81865 -9.78482,7.63694 5.13278,-2.22744 10.02824,-4.45488 15.75117,-6.68232 l -5.96635,-0.95462 z"/>
        <path inkscape:connector-curvature="0" id="path10941" style="fill:#e20909;fill-rule:evenodd;stroke:#000000;stroke-width:2.5999999;stroke-linecap:round;stroke-linejoin:round;stroke-miterlimit:4;stroke-opacity:1;stroke-dasharray:none" d="m 330.50147,622.88865 c -5.48943,18.85369 -10.71405,37.70739 -20.52427,56.56106 -8.15662,0.86464 -16.32844,1.6685 -23.86542,5.01174 -5.60011,1.33662 -10.46862,3.03904 -14.79658,5.01174 0.70223,1.69906 -0.83564,4.79818 4.53443,3.57982 2.90203,-4.27991 7.90054,-3.31856 11.93273,-4.77308 l 20.04695,-2.38654 -22.67215,8.11425 -5.25039,5.25037 c 0.0557,1.30304 -0.0433,2.69887 3.10251,2.14789 2.87855,-2.19047 5.80072,-4.42456 7.44133,-5.37711 l 14.75351,-1.54386 12.88733,-4.53443 7.15962,-6.92097 c 8.98434,-2.2724 5.33923,-2.56036 10.02348,-0.71598 2.08992,-1.82968 0.91006,-4.13665 0.95463,-5.96635 -2.77595,-0.94676 -2.21073,-0.54541 -4.98668,-0.88025 -3.58818,0.72988 -7.17633,1.35127 -10.76451,5.17604 4.59722,-19.56966 12.59054,-39.13931 22.91083,-58.70897 l -12.88735,0.95463 z"/>
        <path inkscape:connector-curvature="0" id="path10943" style="fill:#000000;fill-rule:evenodd;stroke:#505050;stroke-width:2.5999999;stroke-linecap:round;stroke-linejoin:round;stroke-miterlimit:4;stroke-opacity:1;stroke-dasharray:none" d="m 235.58044,549.09596 c 11.63907,11.35694 21.88754,53.685 23.10688,68.71952 3.52871,0.60669 3.21466,6.96983 14.37049,3.66213 1.90373,-4.15405 3.81275,-5.648 6.34802,-12.07312 2.24127,-19.3946 -8.05948,-37.83457 -11.13507,-57.22916 l -32.69032,-3.07937 z"/>
        <path inkscape:connector-curvature="0" id="path10945" style="fill:#000000;fill-rule:evenodd;stroke:#505050;stroke-width:2.5999999;stroke-linecap:round;stroke-linejoin:round;stroke-miterlimit:4;stroke-opacity:1;stroke-dasharray:none" d="m 273.29752,400.45346 82.91171,60.36583 67.60464,48.66887 11.82348,10.06195 c 4.13997,4.62866 6.77332,9.16443 2.02376,13.24496 1.58392,23.80635 -95.88818,-41.12499 -143.83229,-61.68747 l -20.5313,-70.65414 z"/>
        <path sodipodi:nodetypes="ccsccccccscssccsccc" inkscape:connector-curvature="0" id="path10947" style="fill:#000000;fill-rule:evenodd;stroke:#505050;stroke-width:2.5999999;stroke-linecap:round;stroke-linejoin:round;stroke-miterlimit:4;stroke-opacity:1;stroke-dasharray:none" d="m 157.21824,279.09966 c 33.10513,-14.1581 54.74861,-4.54065 70.23816,15.8652 10.37716,16.10837 16.34757,27.09571 22.74913,37.36063 9.18027,14.72054 15.92405,26.45706 21.23183,39.06771 31.48657,26.60819 57.99792,56.22556 82.20154,87.23872 40.14721,53.38834 55.78458,62.85397 72.07924,92.3631 7.63057,21.57462 67.2692,63.59693 87.6369,71.47795 5.84292,6.02575 -2.81742,9.08284 -11.67928,7.95826 -2.86776,6.62136 -12.75792,7.1408 -19.50801,3.17131 -24.40313,-0.5388 -52.55413,-27.78093 -66.61612,-42.60582 -20.24751,-21.34597 -46.50187,-2.93632 -68.93079,-5.38297 -18.75789,5.84544 -30.67138,8.58731 -55.93346,1.50236 -44.65541,-12.52393 -64.02287,-40.11935 -108.70945,-78.64677 -12.19841,-10.51711 -16.03598,-24.90825 -18.87821,-41.13509 -3.93896,-17.7197 -8.14562,-35.48787 -3.20485,-53.92231 6.59592,-16.77038 12.35262,-32.87744 10.61309,-52.57028 -1.21008,-13.69929 -12.53136,-34.40896 -33.89291,-43.57341 l 8.89307,-30.64681 c 3.661,-2.99201 7.22996,-6.1681 11.71012,-7.52178 z"/>
        <path inkscape:connector-curvature="0" id="path10951" style="fill:#000000;fill-rule:evenodd;stroke:#505050;stroke-width:2.5999999;stroke-linecap:round;stroke-linejoin:round;stroke-miterlimit:4;stroke-opacity:1;stroke-dasharray:none" d="m 289.03621,399.66552 c 39.43427,25.66243 51.21629,54.45083 75.65766,80.78431 l 78.44144,77.42414 c 11.57358,8.1396 25.13864,22.74848 36.71224,22.04453 29.24655,8.92156 36.46545,33.16597 8.1763,19.48317 0,0 -35.30053,-12.41399 -89.8713,-42.1211 -54.24915,-29.532 -89.68725,-37.41237 -139.73789,-65.21449 -46.47539,-25.81615 -64.04187,-91.05143 -64.04187,-91.05143"/>
        <path inkscape:connector-curvature="0" id="path10953" style="fill:#000000;fill-opacity:1;fill-rule:evenodd;stroke:#505050;stroke-width:2.5999999;stroke-linecap:round;stroke-linejoin:round;stroke-miterlimit:4;stroke-opacity:1;stroke-dasharray:none;stroke-dashoffset:0" d="m 192.41425,303.3465 c -0.0713,3.01938 -3.24583,5.16009 -7.08597,4.77837 -3.84011,-0.38171 -6.89885,-3.14205 -6.82752,-6.16143 0.0712,-3.01939 3.24583,-5.16009 7.08597,-4.77836 3.84014,0.38173 6.89885,3.14203 6.82752,6.16142 z"/>
        <path inkscape:connector-curvature="0" id="path10955" style="fill:#e20909;fill-rule:evenodd;stroke:#000000;stroke-width:2.5999999;stroke-linecap:round;stroke-linejoin:round;stroke-miterlimit:4;stroke-opacity:1;stroke-dasharray:none" d="m 83.381214,300.31904 c 20.894626,-9.97918 59.719846,1.76969 71.167036,10.44398"/>
        <path inkscape:connector-curvature="0" id="path10957" style="fill:#000000;fill-rule:evenodd;stroke:#505050;stroke-width:2.5999999;stroke-linecap:round;stroke-linejoin:round;stroke-miterlimit:4;stroke-opacity:1;stroke-dasharray:none" d="m 309.40924,575.44045 15.33199,23.90568 c 2.96405,9.2234 3.90867,17.32334 4.92251,25.4618 2.63792,4.406 6.35925,3.41142 9.86005,3.51605 4.04097,-0.18598 7.27074,-3.96225 10.33001,-8.49309 2.16869,-13.58241 2.22587,-26.99488 0.58944,-40.27103 -1.7415,-11.05896 -3.97007,-18.11274 -3.85459,-29.1951"/>
        <path inkscape:connector-curvature="0" id="path10959" style="fill:none;stroke:#505050;stroke-width:2.5999999;stroke-linecap:round;stroke-linejoin:round;stroke-miterlimit:4;stroke-opacity:1;stroke-dasharray:none;stroke-dashoffset:0" d="m 184.55121,301.30704 c -0.0151,0.74614 -0.67945,1.27512 -1.48333,1.18079 -0.80385,-0.0943 -1.44414,-0.77643 -1.42921,-1.52255 0.0151,-0.74609 0.67947,-1.2751 1.48333,-1.18074 0.80385,0.0943 1.44414,0.77641 1.42921,1.5225 z"/>
        <path inkscape:connector-curvature="0" id="path10961" style="fill:#000000;fill-rule:evenodd;stroke:#505050;stroke-width:2.5999999;stroke-linecap:round;stroke-linejoin:round;stroke-miterlimit:4;stroke-opacity:1;stroke-dasharray:none" d="m 449.48702,583.16522 c -16.01385,-8.46559 -41.58046,-3.90053 -62.03406,-2.59868"/>
        <path inkscape:connector-curvature="0" id="path10963" style="fill:#000000;fill-rule:evenodd;stroke:#505050;stroke-width:2.5999999;stroke-linecap:round;stroke-linejoin:round;stroke-miterlimit:4;stroke-opacity:1;stroke-dasharray:none" d="m 241.48069,409.61869 c -1.56867,64.29464 91.57722,78.97689 137.36582,118.46535"/>
        <path inkscape:connector-curvature="0" id="path10965" style="fill:#000000;fill-rule:evenodd;stroke:#505050;stroke-width:2.5999999;stroke-linecap:round;stroke-linejoin:round;stroke-miterlimit:4;stroke-opacity:1;stroke-dasharray:none" d="m 438.58544,533.14666 c -8.0006,-0.93894 -17.13457,-8.06785 -29.02569,-17.55044"/>
        <path inkscape:connector-curvature="0" id="path10967" style="fill:#000000;fill-rule:evenodd;stroke:#505050;stroke-width:2.5999999;stroke-linecap:round;stroke-linejoin:round;stroke-miterlimit:4;stroke-opacity:1;stroke-dasharray:none" d="m 474.6988,578.98041 c -20.67535,-4.82918 -31.33629,-15.96 -46.91363,-22.54569"/>
        <path inkscape:connector-curvature="0" id="path10969" style="fill:#000000;fill-rule:evenodd;stroke:#505050;stroke-width:2.5999999;stroke-linecap:round;stroke-linejoin:round;stroke-miterlimit:4;stroke-opacity:1;stroke-dasharray:none" d="m 290.75687,441.34445 c 31.9371,45.21561 58.95143,46.1261 88.42714,69.18916"/>
        <path inkscape:connector-curvature="0" id="path10971" style="fill:#000000;fill-rule:evenodd;stroke:#505050;stroke-width:2.5999999;stroke-linecap:round;stroke-linejoin:round;stroke-miterlimit:4;stroke-opacity:1;stroke-dasharray:none" d="m 502.03697,630.349 c -18.87479,-4.37395 -53.6754,-26.74538 -63.11402,-36.45087"/>
        <path inkscape:connector-curvature="0" id="path10973" style="fill:#000000;fill-rule:evenodd;stroke:#505050;stroke-width:2.5999999;stroke-linecap:round;stroke-linejoin:round;stroke-miterlimit:4;stroke-opacity:1;stroke-dasharray:none" d="m 454.78583,614.1486 c 7.72241,8.85579 16.89663,13.45788 26.32563,18.90046"/>
      </g>
      <path sodipodi:nodetypes="cccccc" inkscape:connector-curvature="0" id="path2241" style="fill:#e20909;fill-rule:evenodd;stroke:#000000;stroke-width:2.5999999;stroke-linecap:round;stroke-linejoin:round;stroke-miterlimit:4;stroke-opacity:1;stroke-dasharray:none" d="m 74.570736,305.85954 c 3.564991,-8.87096 40.615264,-19.99308 62.602024,-17.25223 3.5022,-2.66565 7.79075,-2.01791 11.29297,-1.14953 4.37805,15.33957 8.58078,16.1733 6.66872,23.64987 -4.04986,4.38277 -16.58944,4.59603 -17.87283,6.51284 -14.20709,-11.92261 -37.668904,-11.009 -62.690884,-11.76095 z"/>
      <path sodipodi:nodetypes="cc" inkscape:connector-curvature="0" id="path2248" style="fill:#e20909;fill-rule:evenodd;stroke:#000000;stroke-width:2.5999999;stroke-linecap:round;stroke-linejoin:round;stroke-miterlimit:4;stroke-opacity:1;stroke-dasharray:none" d="m 78.280812,305.09181 c 20.894626,-9.97918 67.965698,-10.08033 77.053798,2.91894"/>
    </g>
  </g>
</svg>